<svg id="Capa_1" data-name="Capa 1" xmlns="http://www.w3.org/2000/svg" viewBox="0 0 365.51 116.55"><defs><style>.cls-1{fill:#7d8e70;}</style></defs><path class="cls-1" d="M3.93,61.4c-.51-2.06-1-4.2-1.48-6.41s-.89-4.44-1.26-6.68S.54,43.84.32,41.6,0,37.22,0,35.15c0-1.24.08-2.82.23-4.74s.37-4,.67-6.22.71-4.54,1.23-6.9A62.75,62.75,0,0,1,4,10.48,34.91,34.91,0,0,1,6.55,4.61,14.19,14.19,0,0,1,9.87.45,2.17,2.17,0,0,1,11.09,0a1.39,1.39,0,0,1,1.16.58A5.54,5.54,0,0,1,13,2.06a66.31,66.31,0,0,1,2.16,10.07A83.36,83.36,0,0,1,16,23.93q0,5.22-.42,10.64T14.32,45.21a99.71,99.71,0,0,1-2.16,10.13A77.39,77.39,0,0,1,9.09,64.5a55.36,55.36,0,0,0,1.62,5.35,16.17,16.17,0,0,0,2.35,4.42,10.56,10.56,0,0,0,3.65,3,11.74,11.74,0,0,0,5.41,1.13,11.54,11.54,0,0,0,5.2-1.1,13.49,13.49,0,0,0,3.83-2.77,17.79,17.79,0,0,0,2.74-3.68A38.84,38.84,0,0,0,35.83,67c.54-1.24,1-2.35,1.35-3.32a5.8,5.8,0,0,1,1.07-2,1.64,1.64,0,0,1,1.35-.65A2.18,2.18,0,0,1,41,61.5,1.86,1.86,0,0,1,41.54,63a11.38,11.38,0,0,1-.68,3.45A26.22,26.22,0,0,1,39,70.72,31.73,31.73,0,0,1,36,75.11,25.29,25.29,0,0,1,32.18,79a20.14,20.14,0,0,1-4.57,2.84,12.42,12.42,0,0,1-5.1,1.1,20.88,20.88,0,0,1-6.19-.84,11.37,11.37,0,0,1-4.94-3.23,23,23,0,0,1-4-6.58A69.48,69.48,0,0,1,3.93,61.4Zm3.29-2.83a89.58,89.58,0,0,0,3.32-17,180,180,0,0,0,.88-18.06,71.5,71.5,0,0,0-.55-8.93A43.64,43.64,0,0,0,9.35,7.22a19.31,19.31,0,0,0-1.8,4.32,53.19,53.19,0,0,0-1.33,5.58c-.36,2-.67,4-.93,6.1s-.46,4-.61,5.87S4.42,32.58,4.35,34s-.09,2.53-.09,3.26c0,1.42.08,3.06.25,4.93S4.9,46,5.16,48s.57,3.86.93,5.7S6.84,57.15,7.22,58.57Z"/><path class="cls-1" d="M70.3,62.31a4.92,4.92,0,0,1,.58-.13,1.25,1.25,0,0,1,1.07.61,2.3,2.3,0,0,1,.42,1.32,2,2,0,0,1-1.29,1.71,13.92,13.92,0,0,1-2.87,1.1,24.78,24.78,0,0,1-3,.61c-1,.13-1.55.19-1.77.19a14,14,0,0,1-2.19-.19,2.58,2.58,0,0,0-.2.55,3.26,3.26,0,0,1-.19.61,14.51,14.51,0,0,1-4.22,6.45,9.5,9.5,0,0,1-6,2,14.52,14.52,0,0,1-3.33-.42,31.35,31.35,0,0,1-3.7-1.13,8.77,8.77,0,0,1-4.78-3.87,11.64,11.64,0,0,1-1.42-5.67,16.81,16.81,0,0,1,.94-5.74A13.66,13.66,0,0,1,40.76,56a11.23,11.23,0,0,1,3.52-2.74,9.09,9.09,0,0,1,4-1,15.1,15.1,0,0,1,2.45.23,14.37,14.37,0,0,1,2.58.68,10,10,0,0,1,2.1,1,2.1,2.1,0,0,1,1,1.29,8.2,8.2,0,0,1,3.77,3.68,12.5,12.5,0,0,1,1.32,5,4.93,4.93,0,0,0,.81.07H63a9.25,9.25,0,0,0,1.55-.13c.48-.09,1-.21,1.52-.36s1.14-.34,1.8-.58S69.36,62.61,70.3,62.31Zm-28.51-.5A10.92,10.92,0,0,0,41,66,6,6,0,0,0,42,69.64a8.46,8.46,0,0,0,2.58,2.3,9.91,9.91,0,0,0,3.16,1.2,14.53,14.53,0,0,0,2.81.32,5.51,5.51,0,0,0,3.74-1.35,12.13,12.13,0,0,0,2.83-4.67,3.25,3.25,0,0,0,.13-.71l-3-.84a24.54,24.54,0,0,1-3.55-1.33,11.73,11.73,0,0,1-3-2,3.61,3.61,0,0,1-1.26-2.72,3,3,0,0,1,.32-1.43,9.82,9.82,0,0,1,.78-1.16,5.24,5.24,0,0,1-1.52.51,6.47,6.47,0,0,0-1.48.46,4.2,4.2,0,0,0-1.45,1.1A7.81,7.81,0,0,0,41.79,61.81Zm12.45-3.57a5.52,5.52,0,0,0-1.67-.32,2.88,2.88,0,0,0-1.65.42,2,2,0,0,0-.81.94v.19c0,.43.33.84,1,1.22a13.61,13.61,0,0,0,2.26,1.07q1.29.48,2.61.87c.88.26,1.58.45,2.1.58a8.77,8.77,0,0,0-1.23-2.94A5.21,5.21,0,0,0,54.24,58.24Z"/><path class="cls-1" d="M104.61,43.73q.14,3.17.42,6.39a57.43,57.43,0,0,0,.91,6.22A41.4,41.4,0,0,0,107.48,62a18.78,18.78,0,0,0,2.36,4.65,10.94,10.94,0,0,0,3.32,3.13,8.64,8.64,0,0,0,4.48,1.12,8.12,8.12,0,0,0,4.9-1.32,12.32,12.32,0,0,0,2.91-2.9,25.5,25.5,0,0,0,1.77-2.9c.45-.88,1-1.32,1.52-1.32a1.47,1.47,0,0,1,1.32.93,3.6,3.6,0,0,1,.48,1.52,12.69,12.69,0,0,1-3.77,6.77,11.21,11.21,0,0,1-3.29,2.13,10.25,10.25,0,0,1-4,.77,27,27,0,0,1-4-.35A21.14,21.14,0,0,1,111,73a9.45,9.45,0,0,1-3.87-2.87,17,17,0,0,1-2.77-5.42,53,53,0,0,1-2-8.58q-.81-5.13-1.52-12.41c-.73,0-1.44,0-2.13-.1a10.25,10.25,0,0,1-1.8-.32,3,3,0,0,1-1.26-.68,1.52,1.52,0,0,1-.48-1.16c.34-.86.74-1.37,1.19-1.52a3.7,3.7,0,0,1,1.13-.22,1.13,1.13,0,0,0,.52.06,5.75,5.75,0,0,0,1.29-.13,5.65,5.65,0,0,1,1.16-.13l-.65-7.16c-.17-.77-.31-1.46-.42-2.06a9,9,0,0,1-.16-1.61,2.13,2.13,0,0,1,.71-1.78,4.78,4.78,0,0,1,2.71-.54q.51,0,.81.87a12.22,12.22,0,0,1,.45,2.42c.1,1,.19,2.25.25,3.67s.14,2.95.23,4.58l.07,1.81h15.6a6.86,6.86,0,0,1,.65.77,3.84,3.84,0,0,1,.45.74,2,2,0,0,1,.19.87,1.51,1.51,0,0,1-.8,1.26,5.89,5.89,0,0,1-3.07.55l-.87,0-1.19-.1Z"/><path class="cls-1" d="M163.89,65.4a3.92,3.92,0,0,1-.71,1.74,16.87,16.87,0,0,1-1.75,2.33,15.27,15.27,0,0,1-2.14,2,3.3,3.3,0,0,1-1.87.83,5.64,5.64,0,0,1-3.56-1.19,12.31,12.31,0,0,1-2.76-3,23.81,23.81,0,0,1-2.1-3.87q-.9-2.08-1.59-3.87c-.45-1.18-.85-2.17-1.19-3s-.65-1.2-.91-1.2l.58,4.58q0,5.68-1.76,8.65a7.12,7.12,0,0,1-5.63,3.41,8.78,8.78,0,0,1-4.7-1.61,21.65,21.65,0,0,1-5-4.71,11.5,11.5,0,0,1-3.22-4.77,20.54,20.54,0,0,1-.77-6.06,10.53,10.53,0,0,1,1.2-5,14.43,14.43,0,0,1,2.9-3.87,14.75,14.75,0,0,1,3.58-2.55,11.17,11.17,0,0,1,3.16-1.13h.45a13,13,0,0,1,2.55.45A11.35,11.35,0,0,1,142.86,46a27,27,0,0,1,5,6,46.63,46.63,0,0,1,5,11.09,15.15,15.15,0,0,0,1.81,4,2.58,2.58,0,0,0,2.12,1.25c.3,0,.68-.26,1.13-.8a19.56,19.56,0,0,0,1.36-1.84c.45-.69.87-1.36,1.26-2a10,10,0,0,1,.9-1.39,2.1,2.1,0,0,1,1.42-.58,1.56,1.56,0,0,1,1.32.65,2.41,2.41,0,0,1,.48,1.48A1.87,1.87,0,0,1,163.89,65.4Zm-23,1.74q.51-1.74.81-3.09a15.84,15.84,0,0,0,.29-3.23,49.1,49.1,0,0,0-.26-5,10.85,10.85,0,0,0-1.56-4.61q-.25-.45-.51-.84a5,5,0,0,0-.59-.7,5.79,5.79,0,0,0-1.29-1.07,3.88,3.88,0,0,0-1.75-.55,7.08,7.08,0,0,0-2.82,1,9.13,9.13,0,0,0-2.3,2,9.81,9.81,0,0,0-1.56,2.55,6.81,6.81,0,0,0-.58,2.67A10.4,10.4,0,0,0,130,61.4a18.07,18.07,0,0,0,2.95,4A15.89,15.89,0,0,0,136.25,68a5.87,5.87,0,0,0,2.27.94,2,2,0,0,0,1.33-.42A5,5,0,0,0,140.86,67.14Z"/><path class="cls-1" d="M220.71,61.34a2.87,2.87,0,0,1,1.23-.71c.34,0,.57.2.67.61a6,6,0,0,1,.17,1.52,13.2,13.2,0,0,1-3.2,9.09A8.4,8.4,0,0,1,217,73.92a5.15,5.15,0,0,1-2,.64,9.11,9.11,0,0,1-4.84-1.19,12.58,12.58,0,0,1-3.32-3,24.63,24.63,0,0,1-2.49-3.87,39.13,39.13,0,0,0-2.29-3.87,12.61,12.61,0,0,0-2.74-3,6.17,6.17,0,0,0-3.87-1.19,3.49,3.49,0,0,0-2.74,1.13,9.15,9.15,0,0,0-1.64,2.77A28.1,28.1,0,0,0,190,66a22.14,22.14,0,0,1-1.2,3.61A9.41,9.41,0,0,1,187,72.4a3.85,3.85,0,0,1-2.93,1.13,2.08,2.08,0,0,1-1.58-.74,2.36,2.36,0,0,1-.68-1.65l.58-7.41c0-3.49-.41-6-1.23-7.49A3.71,3.71,0,0,0,177.82,54q-.58,0-2.16,1.35t-3.52,3.26q-1.94,1.9-4,3.84a42.92,42.92,0,0,1-3.61,3.09l-.22.13a2.36,2.36,0,0,1-.23.13,2,2,0,0,1-1,.26,2.43,2.43,0,0,1-1.29-.58,2,2,0,0,1-.77-1.68,1.86,1.86,0,0,1,.38-1.16,2.4,2.4,0,0,1,.45-.45c.56-.39,1.3-1,2.23-1.74l3-2.52,3.29-2.77c1.12-.95,2.17-1.81,3.16-2.58s1.87-1.41,2.64-1.91a3.9,3.9,0,0,1,1.68-.74,8.08,8.08,0,0,1,4.13.91,6.39,6.39,0,0,1,2.38,2.35,9.36,9.36,0,0,1,1.13,3.29,23.4,23.4,0,0,1,.29,3.77A19.29,19.29,0,0,1,191,55.82a10.82,10.82,0,0,1,5.09-1.32,12,12,0,0,1,6.1,1.52A14.38,14.38,0,0,1,207,61.47l3.35,6.25c.9.91,1.56,1.62,2,2.13a2,2,0,0,0,1.64.78c.17,0,.53-.33,1.07-1s1.15-1.43,1.84-2.35,1.37-1.93,2.06-3S220.24,62.24,220.71,61.34Z"/><path class="cls-1" d="M257.09,63.79q-1.42,1.54-3.16,3.84c-1.16,1.52-2.35,3.12-3.55,4.77s-2.4,3.29-3.58,4.9-2.25,3-3.19,4.16c.34,1.68.7,3.38,1.06,5.1s.69,3.51,1,5.38.52,3.85.71,5.94.29,4.31.29,6.67c0,.61-.08,1.56-.22,2.87a14.14,14.14,0,0,1-1.1,4,9.88,9.88,0,0,1-2.68,3.55,7.63,7.63,0,0,1-5,1.61,9.07,9.07,0,0,1-3.9-1.26,10.14,10.14,0,0,1-2.61-2.32,10.57,10.57,0,0,1-1.58-2.8,19.12,19.12,0,0,1-.81-2.78,14.08,14.08,0,0,1-.29-2.16c0-.58,0-.91,0-1,0-1.29.13-2.58.26-3.87a20.28,20.28,0,0,1,1.1-4.55,45.5,45.5,0,0,1,2.87-6.32q2-3.7,5.64-9.32a20.86,20.86,0,0,1-.61-2.25c-.2-.87-.39-1.74-.58-2.62s-.38-1.74-.55-2.58-.35-1.58-.52-2.22l-.13-.39a9.34,9.34,0,0,1-2.71,1.45,18.42,18.42,0,0,1-3.29.84,34.19,34.19,0,0,1-3.57.39c-1.23.06-2.4.09-3.52.09a11.32,11.32,0,0,1-1.61-.12,4.73,4.73,0,0,1-1.55-.52,3.29,3.29,0,0,1-1.19-1.16A3.8,3.8,0,0,1,218,69a16.45,16.45,0,0,1,1.49-6.57,28.18,28.18,0,0,1,3.74-6.29,21.23,21.23,0,0,1,5-4.71,9.77,9.77,0,0,1,5.42-1.84,5.11,5.11,0,0,1,2.77.81,8.71,8.71,0,0,1,2.26,2,9.75,9.75,0,0,1,1.51,2.74,8.5,8.5,0,0,1,.55,2.93,30.26,30.26,0,0,1-.26,4.39c-.17,1.12-.3,2.06-.38,2.84.17.9.33,1.89.48,3l.45,3.23c.15,1.08.31,2.12.48,3.13a21.7,21.7,0,0,0,.65,2.74c.9-1.2,1.92-2.54,3.06-4s2.3-2.92,3.49-4.39,2.33-2.87,3.45-4.22,2.13-2.57,3-3.64ZM237,58.37a4.8,4.8,0,0,0-.39-1.8,8.88,8.88,0,0,0-1-1.84,5.71,5.71,0,0,0-1.45-1.45,3,3,0,0,0-1.74-.58,4.88,4.88,0,0,0-3,1.51,21,21,0,0,0-3.22,3.68,27.75,27.75,0,0,0-2.58,4.51,10.1,10.1,0,0,0-1.07,4,1.86,1.86,0,0,0,2.07,2.13,35.94,35.94,0,0,0,5.58-.49,9.29,9.29,0,0,0,3.87-1.51,6.27,6.27,0,0,0,2.22-3.06A15.3,15.3,0,0,0,237,58.37Zm5.35,45.54c0-2.07-.07-4-.22-5.64s-.36-3.29-.62-4.78-.54-2.89-.87-4.22-.63-2.65-.93-3.94c-.65,1.08-1.26,2.14-1.84,3.2s-1.11,2.11-1.58,3.19a53.21,53.21,0,0,0-2.32,6,19.42,19.42,0,0,0-1,6v.58a19.31,19.31,0,0,0,.9,4.32,11.49,11.49,0,0,0,1.39,3,2.69,2.69,0,0,0,2.35,1.33,4.29,4.29,0,0,0,2.58-.71,4.77,4.77,0,0,0,1.48-1.75,6.94,6.94,0,0,0,.68-2.25,16.61,16.61,0,0,0,.16-2.2c0-.3,0-.57,0-.8s0-.47,0-.68A1.71,1.71,0,0,1,242.38,103.91Z"/><path class="cls-1" d="M253.48,57.47c-.17-.77-.31-1.46-.42-2.06a9.12,9.12,0,0,1-.16-1.62,2.08,2.08,0,0,1,.71-1.77,4.66,4.66,0,0,1,2.71-.55c.68,0,1.22.48,1.61,1.45A24.27,24.27,0,0,1,259,56.57c.32,1.46.62,3,.9,4.7A36.19,36.19,0,0,0,261,66a12.15,12.15,0,0,0,1.74,3.65,3.29,3.29,0,0,0,2.74,1.45,5,5,0,0,0,2.62-.65,6.32,6.32,0,0,0,1.8-1.61,9.81,9.81,0,0,0,1.26-2.13c.34-.77.68-1.48,1-2.13A7.49,7.49,0,0,1,273.21,63a1.91,1.91,0,0,1,1.49-.64,3.33,3.33,0,0,1,1,1.42,7.06,7.06,0,0,1,.12,1.41,14.75,14.75,0,0,1-1.25,3.71,11.77,11.77,0,0,1-2.16,3.1,10.41,10.41,0,0,1-3,2.13,9.06,9.06,0,0,1-3.87.8,12,12,0,0,1-3.38-.48,6.8,6.8,0,0,1-2.94-1.77,15.08,15.08,0,0,1-2.29-4.1c-.66-1.7-1.25-3.36-1.77-5-.3-1-.59-2-.87-3S253.69,58.54,253.48,57.47Zm3.67-16.77a3.94,3.94,0,0,1-.9-.1,1.58,1.58,0,0,1-.84-.51,3,3,0,0,1-.61-1.26,9.73,9.73,0,0,1-.23-2.39,5.78,5.78,0,0,1,1.94-3.29,5.07,5.07,0,0,1,3.29-1.22,1.68,1.68,0,0,1,1.13.51,3.53,3.53,0,0,1,.67,1.07,4.38,4.38,0,0,1,.33,1.29c0,.45.06.85.06,1.19a6.69,6.69,0,0,1-.22,1.74,3.87,3.87,0,0,1-.78,1.49,4.08,4.08,0,0,1-1.48,1.06A5.8,5.8,0,0,1,257.15,40.7Z"/><path class="cls-1" d="M272.89,62.76a33.38,33.38,0,0,1-1.55-6.58l-.9-19.61a28.5,28.5,0,0,1,.64-5.26,21.25,21.25,0,0,1,1.71-4.93,13.68,13.68,0,0,1,2.78-3.81,6.93,6.93,0,0,1,3.77-1.87l.84-.06a7.74,7.74,0,0,1,4.13,1A7.87,7.87,0,0,1,287,24.38a12.68,12.68,0,0,1,1.46,3.74,19.69,19.69,0,0,1,.45,4.19,39.93,39.93,0,0,1-1.07,8.87,62.73,62.73,0,0,1-2.74,9,52.94,52.94,0,0,1-3.74,7.77,22.88,22.88,0,0,1-4,5.23,39.51,39.51,0,0,0,1.32,4A19.6,19.6,0,0,0,281,71.56a14.17,14.17,0,0,0,3.61,3.55,8.82,8.82,0,0,0,5.1,1.45,10,10,0,0,0,1.67-.32,4.87,4.87,0,0,0,3.23-2.73,7.19,7.19,0,0,0,.58-3.11,15.48,15.48,0,0,0-.13-1.92c-.09-.65-.17-1.2-.26-1.67a6.19,6.19,0,0,1-.19-.84c-.05-.25-.09-.53-.13-.83a2.5,2.5,0,0,1,.42-1.45,1.81,1.81,0,0,1,1.25-.74,8.77,8.77,0,0,1,3.2.68,10,10,0,0,0,3.71.68,9.12,9.12,0,0,0,2.54-.36,4.81,4.81,0,0,0,2.17-1.26,3,3,0,0,1,1.61-.9,4.37,4.37,0,0,1,1.74.29,1.3,1.3,0,0,1,.77,1.07,3.28,3.28,0,0,1-1,2.3,8,8,0,0,1-2.33,1.68,12.93,12.93,0,0,1-2.83,1,10.38,10.38,0,0,1-6.58-.41,10.29,10.29,0,0,1,.64,3.61,9.62,9.62,0,0,1-.64,3.48,8.71,8.71,0,0,1-4.94,5,10.53,10.53,0,0,1-4.16.78,13.21,13.21,0,0,1-9.19-3.42A16.82,16.82,0,0,1,278,73.72a31.38,31.38,0,0,1-2.13-3.93c-.61-1.33-1.14-2.61-1.61-3.84S273.32,63.66,272.89,62.76Zm12.45-31.48a11.41,11.41,0,0,0-.29-2.45,8.33,8.33,0,0,0-.87-2.32,5.21,5.21,0,0,0-1.52-1.71,3.68,3.68,0,0,0-2.22-.68,3.75,3.75,0,0,0-3.1,1.49,10.31,10.31,0,0,0-1.74,3.51,20.12,20.12,0,0,0-.74,4.13c-.11,1.4-.16,2.5-.16,3.32,0,1.81,0,3.41,0,4.81s0,2.65,0,3.77v3.48c0,1.16,0,2.12,0,2.87a18,18,0,0,0,.2,2.16c.1.69.24,1.42.42,2.2s.41,1.76.71,3l.13.39a16.59,16.59,0,0,0,1.9-2.58,39.55,39.55,0,0,0,2.9-5.61,62,62,0,0,0,2.81-8.13,48.69,48.69,0,0,0,1.61-10.12Z"/><path class="cls-1" d="M307.14,61.4q-.78-3.09-1.48-6.41c-.48-2.22-.9-4.44-1.26-6.68s-.66-4.47-.87-6.71-.32-4.38-.32-6.45c0-1.24.07-2.82.22-4.74s.38-4,.68-6.22.71-4.54,1.22-6.9a65.11,65.11,0,0,1,1.87-6.81,35.74,35.74,0,0,1,2.55-5.87A14.52,14.52,0,0,1,313.07.45,2.17,2.17,0,0,1,314.3,0a1.4,1.4,0,0,1,1.16.58,5.26,5.26,0,0,1,.77,1.48,65.06,65.06,0,0,1,2.17,10.07,84.89,84.89,0,0,1,.8,11.8q0,5.22-.42,10.64t-1.26,10.64a99.71,99.71,0,0,1-2.16,10.13,77.4,77.4,0,0,1-3.06,9.16,55.38,55.38,0,0,0,1.61,5.35,16.19,16.19,0,0,0,2.36,4.42,10.53,10.53,0,0,0,3.64,3,11.78,11.78,0,0,0,5.42,1.13,11.47,11.47,0,0,0,5.19-1.1,13.68,13.68,0,0,0,3.84-2.77,18.15,18.15,0,0,0,2.74-3.68A41.12,41.12,0,0,0,339,67c.53-1.24,1-2.35,1.35-3.32a5.82,5.82,0,0,1,1.06-2,1.67,1.67,0,0,1,1.36-.65,2.2,2.2,0,0,1,1.42.42,1.89,1.89,0,0,1,.51,1.52,11.32,11.32,0,0,1-.67,3.45,26.31,26.31,0,0,1-1.91,4.25,30.77,30.77,0,0,1-2.93,4.39,25.29,25.29,0,0,1-3.84,3.9,20.2,20.2,0,0,1-4.58,2.84,12.34,12.34,0,0,1-5.09,1.1,21,21,0,0,1-6.2-.84,11.35,11.35,0,0,1-4.93-3.23,22.79,22.79,0,0,1-4-6.58A68.44,68.44,0,0,1,307.14,61.4Zm3.29-2.83a90.37,90.37,0,0,0,3.32-17q.87-8.77.87-18.06a69.64,69.64,0,0,0-.55-8.93,43.71,43.71,0,0,0-1.51-7.39,19.77,19.77,0,0,0-1.81,4.32,53.24,53.24,0,0,0-1.32,5.58c-.37,2-.68,4-.94,6.1s-.46,4-.61,5.87-.26,3.49-.32,4.93-.1,2.53-.1,3.26c0,1.42.09,3.06.26,4.93s.39,3.79.65,5.75.57,3.86.93,5.7S310,57.15,310.43,58.57Z"/><path class="cls-1" d="M364.61,65.4A16.69,16.69,0,0,1,360.42,69a18.15,18.15,0,0,1-5.81,2.39h-2.26a15.32,15.32,0,0,1-2.51-.22,12.31,12.31,0,0,1-2.65-.75l-2.9-2c-.56-.38-.93-.66-1.13-.83a2,2,0,0,1-.39-.46,4.86,4.86,0,0,0-.74-.83,8.84,8.84,0,0,1-2.29-3.87,17.46,17.46,0,0,1-.61-4.71,20.87,20.87,0,0,1,.65-5,20.49,20.49,0,0,1,1.83-4.81,12.76,12.76,0,0,1,2.91-3.64,5.74,5.74,0,0,1,3.83-1.45,4,4,0,0,1,1.71.55A7.66,7.66,0,0,1,352.13,45a10.17,10.17,0,0,1,1.74,2.68,8.91,8.91,0,0,1,.74,3.74,23.29,23.29,0,0,1-2.13,7.22,43.26,43.26,0,0,1-4.71,7.68,16.52,16.52,0,0,0,2.07.74,9.17,9.17,0,0,0,2.51.35h2.26a25.72,25.72,0,0,0,2.87-1,6.83,6.83,0,0,0,1.55-.93,8.57,8.57,0,0,0,1.16-1.23c.36-.47.94-1.12,1.71-1.93a1.84,1.84,0,0,1,1.55-.78,2.29,2.29,0,0,1,1.42.49,1.64,1.64,0,0,1,.64,1.38A3.27,3.27,0,0,1,364.61,65.4ZM348.29,46.89a3,3,0,0,0-2.48,1.26,10.6,10.6,0,0,0-1.62,2.9,16.88,16.88,0,0,0-.87,3.23,16.45,16.45,0,0,0-.26,2.22,11.8,11.8,0,0,0,.46,3.65,11.31,11.31,0,0,0,1.29,2.67,12.51,12.51,0,0,0,2-2.55,22.63,22.63,0,0,0,1.64-3.22,24,24,0,0,0,1.13-3.35,12.07,12.07,0,0,0,.42-2.94V49.67C349.34,47.82,348.76,46.89,348.29,46.89Z"/></svg>