<svg id="Capa_1" data-name="Capa 1" xmlns="http://www.w3.org/2000/svg" viewBox="0 0 1417.32 1417.32"><defs><style>.cls-1{fill:#f3e9dc;}.cls-2{fill:#335527;}.cls-3{fill:#7d8e70;}.cls-4{fill:#dc8f66;}.cls-5{fill:#f3e7e2;}</style></defs><rect class="cls-1" width="1417.32" height="1417.32"/><path class="cls-2" d="M523.23,774c1.89-2,4.34-3.5,5-6.12a33.86,33.86,0,0,0,1.51-8.9q-.12-63.25,0-126.5c1.94-17,.76-34,.95-51.08s.1-34.34,0-51.5c0-2.18,1.38-3.89,1.14-6.1-.2-1.85-.62-3.89.88-5.62.33-.38,0-1.29.05-2,.15-2-2.1-3.81-.9-5.52,1.45-2.07.68-4.12.86-6.16a46,46,0,0,0,0-6c-.1-2.28,1.5-4.19,1.09-6.6-.36-2.11-.63-4.52,0-6.45,1.35-3.88.22-7.84,1-11.6.93-4.55.15-9.21,1.1-13.57.83-3.77.4-7.44.82-11.12.52-4.69,1.35-9.35,1-14.09,1.78-2.87.9-6,.95-9.09.09-5.55,1.76-11,1.05-16.58,1.74-3.74,1-7.72.9-11.59,0-2.18,1.51-3.86,1.17-6.1s-.66-4.54.05-6.44c1.39-3.72.87-7.44.78-11.13-.07-2.82,1.44-5.26,1.15-8.09-.26-2.64-.73-5.57.11-7.94,1.11-3.11.63-6.1.82-9.14.32-5.2,1.61-10.33,1-15.59,1.73-3.74.34-7.79,1.1-11.56,1-4.87.21-9.85,1.11-14.57a54.24,54.24,0,0,0,.73-10.12c0-2.61,1.49-4.89,1.13-7.6a68.6,68.6,0,0,1-.08-8c0-1.62,1.21-2.84,1.11-4.59s-.7-3.49.53-5.25c.94-1.36-.09-3.32.43-4.81a33.65,33.65,0,0,0,1.89-13.69c-.13-1.86,1.39-3.17,1.13-5.1-.2-1.49-.68-3.26.81-4.65.34-.31.08-1.26.11-1.92.07-1.91-.09-3.75.9-5.64.84-1.61-.76-3.92,1.06-5.57.25-.23.11-1,0-1.46-.65-3.95,1.62-7.65,1-11.59,1.37-2.21.44-4.84,1.13-7,.75-2.41.26-4.92,1-7.09,1.42-4.2.33-8.91,2.87-12.8a.94.94,0,0,0,0-.5c-.53-4.26.8-8.4,1.21-12.56.57-5.6.28-11.47,2.76-16.8-.59-3.13,1.45-5.9,1.1-9.07-.36-3.34.83-6.55,1.68-9.77a16.51,16.51,0,0,0,.24-4.4,30,30,0,0,1,1.89-11.72,5.17,5.17,0,0,0,.11-2.45c-.64-4.28,1.83-8,2.07-12.17.11-1.83,2.08-2.78,3.1-4.15,2.39-3.22,5-6.5,8.85-8.27,4.64-2.15,9.3-3.44,14.56-1.61a27.35,27.35,0,0,1,14.52,10.63c1.15,1.59,2.86,2.66,4,4.37,4.28,6.67,7.22,14,10.93,21a30.53,30.53,0,0,1,4,14.32c0,1.51,1.4,2.44,1.13,4.1-.22,1.32-.72,3,.82,4.13a1,1,0,0,1,.06.93c-1.71,2.58.53,5.11.08,7.7-.18,1-.45,2.26.66,3.22.36.32.26,1.22.28,1.85.06,1.77-1.44,3.13-1.09,5.1.28,1.56,1.09,2.88,1.21,4.57.35,5-1.19,9.69-1.13,14.59s.8,10.16-.19,15c-1.15,5.6-.8,11.11-.67,16.62.12,5.28-1.33,10.35-1.16,15.59s.77,10.47-.14,15.47c-1.34,7.41.05,14.82-.94,22.1-1.2,8.87,0,17.82-1.09,26.57-1,7.59.08,15.16-1,22.59-.79,5.73-.15,11.49-1,17.08-.58,3.57-.14,7.18-.93,10.59-.9,3.89-.2,7.87-1.06,11.57a35.33,35.33,0,0,0-.73,9.62c.1,2.19-1.54,3.85-1.16,6.11.35,2.1.66,4.53,0,6.43-1.21,3.24-.75,6.43-.84,9.64-.06,2.42-1.45,4.54-1.12,7.09.28,2.18.63,4.57-.9,6.59-.08.1,0,.32,0,.49.61,6.41-1.41,12.66-1.06,19.09.48,8.7-1.41,17.33-1.08,26.09.14,3.59,1.55,6.93,1.21,10.58s-.09,7.33-.07,11c0,4.55-1.45,8.95-1.08,13.59.36,4.47.83,9.16-.1,13.45-1.4,6.42-.36,12.77-.82,19.13,2.07,6.27,1.46,12.83.75,19-.81,7.08-.54,14.09-.72,21.12s0,14,0,21a22.48,22.48,0,0,0,12.69,19.57c3.72,1.69,8.46,1.09,11.17-1.59,3.72-3.69,6.42-7.9,6.13-13.44-.11-2.11,1.38-3.87,1.08-6.1-.27-2-.42-4.15.85-6.12.46-.71.09-2,.07-3-.06-3.21.9-6.23,1.77-9.26a3.63,3.63,0,0,0,.22-1.4c-.71-5.11,1.27-10,1-15.09-.1-1.71,1.37-2.84,1.13-4.6-.17-1.34-.69-3,.85-4.14.25-.18.13-.95.07-1.43-.68-5.43,1.35-10.68,1-16.09-.13-2.06,1.41-3.84,1-6.1-.32-2-.43-4.21.93-6.07-.77-4.12.78-8.06,1.17-12.07.45-4.64.53-9.48,2.5-13.91.12-.28.35-.6.31-.86-.69-4,1.77-7.67,1-11.58-.46-2.25,1.18-4,1.11-6.1s-.69-4.22.89-6.12c.33-.39.15-1.31,0-2-.59-3.14.75-6.05,1-9.08a25.11,25.11,0,0,1,1.94-8.69,3.68,3.68,0,0,0,0-2c-.7-4.45.88-8.72,1.23-13.07.21-2.49.06-5.32,1-7.53,1-2.48.65-4.79.76-7.17.07-1.48,1.51-2.39,1.15-4.1-.27-1.3-.68-3,.86-4.12.24-.17.12-1,0-1.44-.7-4,1.64-7.65,1-11.59,1.39-2.21.41-4.85,1.13-7,.79-2.41.29-4.9,1-7.09.84-2.57.42-5.15,1-7.6.5-2.23,1.47-4.59,1.68-6.72.38-3.85,1.79-7.61,1.22-11.57-.4-2.76,1.52-5.24,1.1-8,1.55-1.11.82-2.74.85-4.14.12-4.32-.37-8.72,2-12.69-.35-2.78.67-5.38,1-8.06.3-2.11-.77-4.49.46-6.3s-.44-4.25,1.48-6c.5-.44.2-1.93.05-2.91-.48-3.3.77-6.39,1.07-9.59,0-.55,1-1.11.9-1.58-.72-4.94,1.65-9.42,2-14.18.08-1.05.8-1.81.94-2.6.64-3.73,1.57-7.44,1.94-11.17a28,28,0,0,1,1.37-6c1-2.9.13-6.08,1.79-8.74-.7-2.35,1.51-4.26,1-6.59,2-1.66-.07-4.54,1.85-6.23,0-3.51,1.38-6.75,2.11-10.12,1.26-5.8,1.83-11.75,4-17.33-.75-2.36.59-4.46,1.14-6.55s1-4.22,1.66-6.28.7-4.68,1-7c.25-1.76,1.12-3.34,1.12-5.06,0-2,1.62-3.49,1.09-5.6s1.66-3.87,1-6.07c2-1.19,0-4,2-5.17-.5-4.57,2.6-8.59,2-13.17,2-5.12,2.14-10.66,3.78-15.91,1.09-3.5,1.22-7.46,2.25-11.1,2-6.91,2.42-14.16,4.92-21,.6-1.64.18-3.52.39-5.3.47-4,2.05-7.56,2.82-11.41,1.21-6,2.62-12.06,5.74-17.6,2.5-4.44,10.25-7,13.67-5.71A12.67,12.67,0,0,0,757,66c.64.06,1.27-.05,1.78.55,2.77,3.2,7,4.49,9.84,7.73a20,20,0,0,1,3,4.27c2.71,5.61,6.13,10.8,9.32,16.12,1.12,1.87.54,4,1.64,5.85.66,1.1-.46,3,1.1,4-.66,3.14.77,6.06,1.15,9.06,1.75,13.87.31,27.75.88,41.61.13,3,1.48,6,1,9.08a87,87,0,0,0-1.12,13.59c0,1.42-.93,2.92-.93,4.58s.55,3.17-.56,4.77c-1,1.37.06,3.3-.44,4.8-1.6,4.82-.83,9.74-.88,14.61,0,2-1.53,3.46-1.16,5.6.31,1.81.66,3.92-.89,5.58-.09.09,0,.32,0,.49.35,5.4-1.8,10.66-1,16.08.35,2.32-.58,4.41-1,6.59s.84,4.62-1,6.59c-.09.09,0,.33,0,.49.53,4.43-1.68,8.64-1,13.09.79,5.26-1.42,10.34-1,15.58-2.28,2.91-.45,6.49-1.69,9.8-1.16,3.06-.48,6.9-.25,10.37.15,2.19-1.28,3.91-1.16,6.1.1,1.83,1,4-.89,5.59-.09.07,0,.32,0,.49.58,4.1-1.39,7.95-1.11,12.09.17,2.67.73,5.45-.63,8.19-1.13,2.26.37,5-1.14,7.55-.73,1.23-.41,3.32,0,4.9.32,1.33-1.89,2.47-.08,3.7-.48,1.66-1.18,3.22-1.08,5.09.08,1.52.85,3.3-.66,4.7-.28.26-.2.91-.26,1.38-.26,2,.26,4-.85,6.16-.88,1.67.14,4-1,6.07-.58,1-.25,2.62-.08,3.93.65,4.78-1.29,9.34-1.11,14.1,0,1.12-1.2,2.14-1,3.59.22,1.29-.07,2.67.08,4,.12,1.07-1.59,2.11,0,3.17-2.23,3.08-.09,6.9-1.85,10.25-1,2,.52,4.84-1.15,7,.35,4.08-1.56,7.94-1.07,12.09a13.59,13.59,0,0,1-.82,7.13c-.86,2,.71,4.56-1.09,6.55-.17.19-.06.66,0,1,.76,5.27-.88,10.38-1.16,15.58-.17,3-.2,6.33-1.79,9.21a2.69,2.69,0,0,0,0,1.47c.67,5.43-.47,10.82-1.25,16-1,6.76.18,13.52-.9,20.1-1.29,7.89.1,15.84-1,23.58-1.37,9.4-.42,18.75-.79,28.11-.09,2.37-.56,4.82.87,7.14.52.84.33,2.34,0,3.44-1.2,4.65-1.2,4.62,0,9.19a8.57,8.57,0,0,1,0,3c-.66,7.24,1,14.37,1.07,21.58,0,4.32,3.5,12.72,6.46,15.77a11,11,0,0,0,6.2,3.05c2,.3,3.62-.82,5.07-2.21a27.13,27.13,0,0,0,5.72-7.63c3-6,5-12.27,7.68-18.32,2.53-5.8,4.43-11.83,7.08-17.57a36.89,36.89,0,0,0,2.66-6.39c.61-2.44,2-4.51,2.7-6.9.64-2.21,1.62-4.44,2.14-6.57a31.9,31.9,0,0,0,1.4-7.52c0-2.53,1.26-5.08,2.12-7.56.19-.55.74-1,.74-1.7a25.61,25.61,0,0,1,.85-8.13c.64-2,0-4.3.16-6.45s-.51-4.15.6-6.25c1-1.92.17-4.22.37-6.34.29-3.2-.79-6.53,1-9.6a2.77,2.77,0,0,0,0-1.49c-.32-2.66-2-5.35-.73-8s.49-5.48.69-8.2-.45-5.77.15-8.48c1.36-6.19.13-12.49,1.07-18.58.74-4.74.12-9.5,1-14.08.77-4.07.22-8.17,1-12.08a74.61,74.61,0,0,0,.88-11.12c.09-1.88,1.27-3.56,1-5.59-.21-1.72-.37-3.55.91-5.11.25-.3.09-1,0-1.47-.73-6.25.76-12.4,1.24-18.57.32-4.19.06-8.52.95-12.56.76-3.41,0-7,1.05-10,1.17-3.3-.05-6.59.86-9.64,1.12-3.71.22-7.54,1.06-11.08.93-3.91.21-7.84,1-11.6s.26-7.84,1-11.57a49.9,49.9,0,0,0,.81-9.63c0-1.92,1.4-3.51,1.1-5.59-.24-1.67-.63-3.61.89-5.1.17-.16,0-.64,0-1,.32-6.53,1.66-13,.93-19.57-.24-2.24,1-4,1.13-6.09s-.89-4.19.82-6.18c.58-.67.21-2.26.1-3.41-.61-6.25,1.72-12.34,1-18.59,1.59-3.24.38-6.81,1.11-10.06.91-4,.29-8.17,1.07-12.07.55-2.74.26-5.52.92-8.1,1-3.87.21-7.87,1.06-11.57,1-4.42.64-9.15,2.84-13.3-.33-2.94.73-5.74.89-8.59.28-4.65,1.26-9.14,1.89-13.69.4-3,1.3-6,1.34-9.06,0-2.4,1.2-4.78,1.88-7.17a56.19,56.19,0,0,0,1.74-9.7c.36-3.56,1.72-6.74,2.44-10.11a61.1,61.1,0,0,1,6.51-17.27,13.2,13.2,0,0,1,9.11-6.86c2.52-.58,4.7-1.08,7.38-.37,3.68,1,5.73,3.63,7.75,6.25,2.94,3.82,4.38,8.47,6.11,12.94,1.83,4.75,3.64,9.5,5.5,14.22,2.52,6.36,5.08,12.67,4.38,19.65-.22,2.25,1.19,3.95,1.14,6.09s-.78,4.29.94,6.09c-.42,3.2.86,6.53-.85,9.65a5.15,5.15,0,0,0-.14,2.43c.08,2.07-.23,4.09.89,6.14.88,1.59-.71,3.84,1,5.61.5.51.36,2,0,2.91-1.78,4.79-.68,9.74-.92,14.6a83.41,83.41,0,0,0,0,10c.43,6.25-1.48,12.32-1.12,18.59s.8,12.77-.08,19c-1.62,11.39.17,22.8-1,34.1-1,10-.72,20.06-.83,30.1s.7,20.4-.26,30.47c-.73,7.74-.55,15.41-.72,23.11s.69,15.76-.24,23.48c-1,8.73-.59,17.41-.76,26.11s0,17.66,0,26.5-.67,17.72.15,26.48c1.28,13.71.52,27.4.85,41.1-1.94,9-.77,18.06-1,27.09s0,18.33-.07,27.49c-.06,4.7,1.32,9,3,13.26,1.38,3.45,2.68,6.9,4.92,10,1.37,1.9,3.16,3.29,4.51,5h4c4.31-3.32,5.94-8.21,7.51-12.94,3-9.08,5.33-18.41,8.86-27.34.62-6.9,3.89-13.09,5.39-19.79.82-3.7,2.39-7.33,3.44-11.05a66.26,66.26,0,0,1,1.83-6.74c.92-2.29,1.3-4.75,2.51-7a20.72,20.72,0,0,0,1.83-6.68c.73-4.84,3.43-9.21,3.22-14.22,0-.16-.07-.37,0-.49,4.35-7.11,4.45-15.49,6.65-23.22,1.94-6.86,3.9-13.79,5.35-20.81a30.08,30.08,0,0,1,1.2-5.5c.79-1.81.17-3.82,1.42-5.42s-.67-4,1.37-5.43c-.54-6.34,3.33-11.95,3-18.25,2-4.19,1.53-8.75,2.17-13.15.68-4.56,2-9,1.79-13.7,0-1.23.89-2.13.94-3.09.16-2.9.88-5.73,1.3-8.55.68-4.63.85-9.36,2.36-13.95a80.76,80.76,0,0,0,2.39-10.52,171.52,171.52,0,0,1,8.2-29.21c2.28-6.09,4.76-12.42,10.15-16.8.63-.52,1.45-1.1,1.64-1.81,1.18-4.33,5.23-4.09,8.32-5.33a2.4,2.4,0,0,1,1.95,0c3,2.27,7.43,2.44,9.24,6.74,1.13,2.7,3.53,4.84,5.13,7.38a13.31,13.31,0,0,1,1.52,3.88c1.29,5.29,3.13,10.4,4.08,15.84.61,3.55,1.38,6.81-.18,10.2a1.2,1.2,0,0,0,0,.5c.49,6.24-1.8,12.35-1,18.58.36,2.69-1.42,4.91-1.11,7.6s.68,5.52-.09,7.94a25.16,25.16,0,0,0-.76,9.13c.11,2.35-1.54,4.2-1.15,6.6.34,2.12.68,4.57-.07,6.44-1.18,2.91-1,5.79-.76,8.63.17,2.53-1.55,4.55-1.17,7.1.33,2.29.66,4.87-.07,6.95-1.24,3.56-.79,7.09-.81,10.63,0,2.29-1.44,4.21-1.13,6.59.25,2,.6,4.25-.92,6.08.76,3.15-.64,6.12-1.19,9.05a64.4,64.4,0,0,0-.75,13.12c0,1.7-1.57,2.78-1.13,4.6a6.17,6.17,0,0,1-.79,4.14,7,7,0,0,0,0,4.89c.49,1.44-1.86,2.47-.21,3.76a.47.47,0,0,1,.08.45c-2.19,3.17-.1,7-1.58,10.35a15.26,15.26,0,0,0-1.23,6.4c.24,5.29-1.56,10.38-1.1,15.59.17,1.92-1.19,3.25-1.15,5.09s.85,3.66-.83,5.13a.54.54,0,0,0-.09.46c.72,3.46-1.17,6.66-1,10.08.4,8.72-1.73,17.35-1,26.09-2,7.79-.06,15.8-1.13,23.57-1.3,9.38-.11,18.78-1.06,28.08a128.38,128.38,0,0,0-.77,14.1c0,2.71-.83,5.56.92,8.11a1.5,1.5,0,0,1,0,1.44c-1.78,1.66-.81,3.76-.92,5.63a62.73,62.73,0,0,0,0,9c.27,3-1.46,5.59-1.13,8.6s.73,6.18-.08,8.95c-1.2,4.08-.79,8.1-.75,12.13,0,2.48-1.4,4.56-1.19,7.09.2,2.34.62,4.81-.82,7.13-.52.84-.23,2.3-.06,3.44.71,4.62-1.45,9-1,13.59-1.81,2.05-.28,4.8-1.39,6.92-1.26,2.39-.35,4.85-.59,7.26-.18,1.9-1.39,3.52-1.1,5.59a7.79,7.79,0,0,1-.79,5.15c-.7,1.28-.11,3.26-.14,4.93a12.29,12.29,0,0,1-.9,5.63c-.74,1.48.55,3.51-1,5.1-.77.79,1.59,2.09-.1,3.11.65,3.46-1.28,6.7-.92,10.08.17,1.65-.82,2.72-1.18,4.06-1.11,4.24-.66,8.81-2.85,12.81-.36.65-.06,1.64,0,2.48a30.54,30.54,0,0,1-1.79,9.26c-.6,2,.43,4.25-1.21,6-.56,6-2.46,11.62-4,17.34-2,7.14-4.33,14.16-6.88,21.14-1.9,5.21-4,10.36-5.85,15.58-2.6,7.26-4.76,14.69-7.26,22-1.7,4.95-3.66,9.82-5.52,14.71-1.2,3.18-2.38,6.41-3.28,9.62s-2.53,6.31-3.41,9.65a60.51,60.51,0,0,1-3.39,9.06,121.62,121.62,0,0,0-4.25,12.22c-2.15,6.62-4.89,13-6.82,19.68-1.86,6.39-4.1,12.69-6.52,18.82-3.33,8.45-5.63,17.26-9.58,25.53-2.49,5.21-3.41,11.23-5.2,16.84-.89,2.79-2.34,5.36-3.05,8.24-1.16,4.66-2.57,9.26-4,13.85-1.48,4.88-3.37,9.66-4.54,14.61-1.31,5.6-3,11.14-4.61,16.62-1.93,6.38-3.26,12.92-5.25,19.29a53.55,53.55,0,0,0-2.7,11.93c-.24,3-1.68,6-2.33,9-.88,4.14-2.27,8.13-2.72,12.43a60.31,60.31,0,0,1-2.38,10.48,12.58,12.58,0,0,0-.41,3.8c0,4-.13,8-1.88,11.74-.5,1.1-.07,2.61-.18,3.93-.27,3.2.44,6.39-.82,9.65a6.62,6.62,0,0,0,.53,6.14,2.54,2.54,0,0,1,.25,2.36c-1.88,5.3-.91,10.76-.82,16.1.07,4-1.42,7.65-1.18,11.6s.76,8.15-.1,12c-1.43,6.23-.53,12.42-.8,18.62-.17,3.89-1.44,7.61-1.11,11.59a48.8,48.8,0,0,1-.1,12,55.77,55.77,0,0,0-.83,8.62c0,3.23-1.3,4.76-4.43,5-2.4.19-4.8.68-7.1.84-5.14.35-10.05,2-15.16,2.19-5.61,2.83-12.28,1-17.84,4-2.82-.67-5.29,1.25-8.09,1a16.68,16.68,0,0,0-6.62.84c-4.44,1.48-9.36,1-13.73,3.09-.41.19-1,0-1.49,0-1.9.28-3.9-.63-5.73.65-1.61,1.12-4-.65-5.44,1.34-3.29-.52-6.29,1.1-9.58,1.17-4.2.08-8.39,1.3-12.55,2.17-.52.11-1,.8-1.71.66-2.31-.42-4.47.35-6.58,1-4.5,1.46-9.46.62-13.79,2.92-.65.34-1.64,0-2.48,0-1.9.06-3.75-.12-5.63.9-1.6.86-3.61-.15-5.64.89s-4.63.4-7,1c-1.91.51-4.05.51-6.05,1.14-4.64,1.48-9.64,1-14.3,2.88-2.24.89-5,.36-7.56,1-4.7,1.2-9.52,1.86-14.26,3-2.73.65-5.71.56-8.58,1-1.89.29-3.51,1.43-5.57,1.26-1.68-.13-3.56-.77-5.24.53s-4-.67-5.42,1.37c-5.08-.71-9.6,2.66-14.67,2-1.64-.21-2.86,1.62-4.59,1-1.9-.69-3.29,1-5.08,1-1.55,0-3.36-.76-4.59,1-2.79-.45-5.44.43-8.08,1-5.49,1.26-11.26,1.27-16.49,3.63-1,.45-1.91.19-2.86.33-2.06.3-4.24-.64-6.23.67-1.64,1.08-3.88-.55-5.52,1.26-.44.47-2,.25-2.85-.1-.6-.24-1.83-1-1.38-1.8,1.74-3-1.71-6.45.94-9.29v-10c0-2.16-.54-4.52.13-6.45.9-2.57.79-5.07.86-7.63.1-3.41-1.41-6.6-1.06-10.1a35,35,0,0,0-.09-10,32.46,32.46,0,0,1-.82-7.11c0-2.27-1.46-4.19-1.1-6.6s-.18-5,.16-7.48c.25-1.81-1.31-2.87-1.16-4.6.12-1.36.64-2.91-.7-4.21-.44-.42-.33-1.59-.2-2.37.54-3.14-.73-6-1-9.09a51.54,51.54,0,0,0-1.84-8.71,59.1,59.1,0,0,1-1-7.06c-.75-5.15-2.34-10.08-3.52-15.1-1.09-4.67-2.37-9.33-3.54-14-1.67-6.64-3.28-13.29-5.2-19.86-1.52-5.19-3.21-10.33-4.92-15.46s-3.31-10-5-14.92a124.19,124.19,0,0,0-5.16-13.86c-1.88-3.87-3.14-8-4.78-12-1.17-2.85-2.58-5.6-3.76-8.44-1.52-3.71-3.46-7.25-4.33-11.22a5.55,5.55,0,0,0-1.05-2c-4.15-5-5.48-11.44-8.68-17s-5.16-11.56-8.33-17-6.43-10.6-9.16-16.22c-3.64-7.51-7.71-14.81-11.69-22.16-4.27-7.9-8.71-15.72-12.95-23.64-1.75-3.26-3.58-6.47-5.15-9.86-1.49-3.23-4-6.07-5.67-9.17-3.52-6.68-6.83-13.49-10.2-20.26-2.83-5.66-5.72-11.29-8.32-17.05-3.24-7.18-7.14-14.06-10.15-21.29-2.62-6.29-6-12.19-8.7-18.4-3.73-8.46-7.9-16.73-12-25a60.74,60.74,0,0,1-4.79-15c-.2-1-.9-1.6-1.15-2.55-1.54-5.85-2.95-11.75-5-17.41-1.84-5-2.58-10.27-4-15.34-.44-1.54-1.32-3.27-1.7-4.76-1.47-5.72-2.46-11.55-5.17-16.88,0-6.73-3.33-12.76-4-19.34-2-1.71-.4-4.3-1.58-6.37a12.68,12.68,0,0,1-1.34-5.89c0-2.29-1.7-4.25-1.08-6.59-2-5.11-1.5-10.85-4-15.84a.94.94,0,0,1,0-.5c.74-4.12-1.49-8-1-12.08.33-2.53-1.26-4.61-1.12-7.09a15.52,15.52,0,0,0-.76-6.65c-.86-2.26-.37-5-1.05-7.55-1.52-5.72-3.12-11.43-4.47-17.2-1.05-4.5-2.34-9-3.51-13.49-1.33-5.13-3.15-10-4.82-15-2.73-8.2-5.47-16.39-8.35-24.54-2.05-5.81-4.42-11.51-6.46-17.32-2.54-7.28-5-14.63-7.69-21.82-2.23-5.89-3.38-12.25-6.82-17.67,0-3.07-1.63-5.67-2.55-8.45-2.13-6.43-4.71-12.72-7-19.1-1.6-4.51-2.68-9.23-4.54-13.62-3.13-7.39-5.06-15.2-8.45-22.51-1.75-3.78-3.69-7.48-5.32-11.29-1.91-4.47-3.74-9.06-3.21-14.19.39-3.73,1.82-5.59,5.76-6.31,1.24-.23,2.13-1.68,3.58-1,3.67,1.65,8.15.85,11.36,4a14.7,14.7,0,0,0,4.79,2.84c4.22,1.72,7.84,4.44,11.75,6.67,3.76,2.16,7.64,4.11,11.39,6.32,1.73,1,3.52,2,5.19,3.11,4.75,3.29,10.41,5,14.87,8.9.72.63,1.84,1.18,2.64,1.92,8,7.41,14.95,15.88,22.53,23.73a190.46,190.46,0,0,1,17.68,21.64c5.4,7.56,11.06,15,15.91,22.9a74,74,0,0,1,4.8,8.49c1.76,3.94,4.64,7.37,6.23,11.42,3.1,7.88,7.78,15.11,9.72,23.5a22.08,22.08,0,0,1,.86,3.12,37.5,37.5,0,0,0,1.8,8.75c.72,2.09-.56,4.58,1.19,6.51-.71,3.14.94,6,1,9.09,0,2.07-.12,4.08.9,6.13.8,1.62-.7,3.94,1.1,5.54-.72,3.46.82,6.7,1.15,10.07.77,7.91,1.14,16,5.82,23,2.78,4.15,5.34,8.45,8,12.7,3.09,5,6.1,10.14,9.2,15.19,3.27,5.32,6.6,10.6,9.89,15.9q5.67,9.15,11.31,18.32c2.87,4.67,6.06,9.09,10.94,11.83,1.29.72,2.66,1.68,4.45,1.37A30.13,30.13,0,0,1,523.23,774ZM414.72,813.47V813a4.39,4.39,0,0,0-.77.29c-.27.17-.2.47.18.59.14,0,.39-.28,1.17-1.79-.19.15-.47.27-.57.48-.2.42,0,.62.42.42a1.31,1.31,0,0,0,.46-.59S415.41,812.22,414.72,813.47ZM587.72,676c-1.33-.06-2.53,0-1.72,1.93a4.54,4.54,0,0,0,2.3-2.84c-.19.15-.47.27-.57.48-.2.42,0,.62.42.42a1.31,1.31,0,0,0,.46-.59S588.41,675.22,587.72,676Zm421.41-255c-2.43,0-3.22.91-3.38,2.29-.19,1.57.11,3.13-.93,4.64a2.4,2.4,0,0,0,.45,3c.51-.51,1.43-1,1.37-1.44C1006.22,426.54,1007.69,424.06,1009.13,421ZM517.18,954.78c4.6.23,4.6.23,6.48-1.32-.67-.43-.94-1.39-2-1.45a7.54,7.54,0,0,1-2,1C518.71,953.17,518.46,954.05,517.18,954.78ZM350.55,553.86c-3.21-.89-3.21-.89-5.46-2.89-.35,1-2,1.29-1.07,2.89Zm96.19,108.33c-1.51-.1-2.85-.59-4,.29a2.52,2.52,0,0,0,2,2.58A2.64,2.64,0,0,0,446.74,662.19Zm466,312c1.45-.59,2.86.4,4-.72a2.47,2.47,0,0,0-2.08-2.5C913.61,971.45,912.65,972,912.75,974.22ZM594.4,949.88c-2.75,2.16-1.43,4.73-1.21,7.15C593.4,954.75,595.39,952.85,594.4,949.88ZM808.23,607c2.73-1.29-.44-3,.4-4.44.16-.27-.91-.61-1.91-.2C806.91,603.81,806,605.59,808.23,607ZM672.12,1050.83c-.8,2-.4,3.26,1.23,4.07C675.09,1052.73,675.09,1052.73,672.12,1050.83ZM719.21,803c-.9.78-.44,1.74-.31,3.07,1.55-.38,3.18.42,5-.55C722.12,804.64,720.41,804.32,719.21,803Zm46.54-162c-.84-1.77,1-3,1-4.91-2.2.51-1.72,3.47-4.24,3.2.78.77,1.24,1.26,1.73,1.7C764.32,641.09,764.55,641,765.75,641ZM562.88,268.69c3,.15,4.33-.69,3.67-2.34a2.47,2.47,0,0,0-2.5-.09Zm45.24,476.2c1.83-.62,3.57-1.34,3.6-3.83C608.7,740.86,609,743.49,608.12,744.89Zm218.36-3.28c2,.82,3.31.48,4.09-1.24C828.47,738.65,828.47,738.65,826.48,741.61ZM427.9,681.69l2.53-2.38c-.59-.38-1-1.88-2.52-1A5.94,5.94,0,0,0,427.9,681.69ZM640.08,903.06c-1.18,2.08.59,3.28,1.07,5.12C642.7,906.15,642.7,906.15,640.08,903.06ZM740.61,235.15c-3.25.94-3.25.94-2.28,4.75ZM622.4,375.28c-.67,2-1.25,3.09-2.68,3.25,1,.42.74,1.82,1.56,2.38C623.27,379.6,622.76,377.88,622.4,375.28ZM964.21,629c.8-.8,1.81-1.46,1.53-2.87-.09-.47-.07-.89-.3-.94l-2.77,2.27ZM551.53,1025.34c-3.3-.14-3.57.07-3.32,2.67C548.94,1026.66,551.28,1027.3,551.53,1025.34Zm272.06,93.44c-1.43-1.44-2.49-2.08-3.36-1.72-.65.27-.66,1-.29,1.74A5.91,5.91,0,0,0,823.59,1118.78Zm90.1-451.92c1.5.1,2.83.57,4.14-.36C916.4,664.37,916.21,664.42,913.69,666.86ZM630.51,178.28c.45.67-.3,2.21,1.18,1.21.8-.53,1.36-.68,2,0a1.2,1.2,0,0,0,2,0C634.53,177.77,632.84,177.81,630.51,178.28Zm-22.6,39.66c-.54-1.24.57-2.55-.94-2.89-1.8-.42-.83,1.81-1.92,2.16-.45.15-.42.45.13.73Zm172.2,745.28c-1.72-.13-3.05-.53-4.4.22C776.68,965.59,777.05,965.59,780.11,963.22ZM724.94,1276c.89-.34,1.83-.89,1.75-2.23a.75.75,0,0,0-1-.72,2.26,2.26,0,0,0-2,2.27C723.75,1275.77,724.14,1276.14,724.94,1276ZM667.3,609c-1.29.94-2.14,2.07-1.39,3.63.32.68,1.07.51,1.68,0C667.68,611.46,668,610.21,667.3,609Zm-73.72-400c.5-.1,1.18,0,1.15-1-.05-1.33-1-1-1.75-1s-1.3,0-1.27,1C591.74,209.35,592.74,208.93,593.58,209.05Zm23.12,73.27c.08-.56-.09-1.27-.5-1.24-.84.06-2-.7-2.47.7-.15.48.12,1.25.49,1.18C615.06,282.82,616.27,283.78,616.7,282.32Zm126.79,3c2.27,1.88,2.27,1.88,4.1-.08A6.56,6.56,0,0,0,743.49,285.36ZM580.06,344.87c.39-1.25,1.06-2.46.36-3.67a1.34,1.34,0,0,0-1.83.48C579.05,342.69,579.56,343.78,580.06,344.87ZM675.3,1071c-1.4,1-2.15,2.12-1.16,4C675.53,1074,676.28,1072.92,675.3,1071Zm11.7-69.13-3.62,1.79a6.61,6.61,0,0,0,4.13.12A1.36,1.36,0,0,0,687,1001.88Zm179.28-16.81a2.72,2.72,0,0,0,.12-2.87l-2.7,1.3a13.87,13.87,0,0,0,1.4,1.37C865.31,985,865.69,985,866.28,985.07ZM829.73,638.31c0-.69,0-1.32-1-1.3-1.33,0-1,1-1,1.75s0,1.3,1,1.27C830,640,829.62,639,829.73,638.31ZM653.22,693c.58-.94,2.64-1.64.93-2.92-.86-.65-1.79.59-2.3,1.51ZM795.43,978c-.69.11-1.69-.31-1.72,1,0,1,.6,1,1.27,1s1.71.33,1.75-1C796.75,978.05,796.12,978,795.43,978ZM633.8,905.12c-1.51,0-2.79-.44-4.17.35C631.75,907.24,631.75,907.24,633.8,905.12ZM589.27,318.73c-2.54.55-3.85,1.83-5.57,1.73C585.58,321.18,587.36,321.46,589.27,318.73ZM810.72,451.52c-.13,1.27.7,1.85,2.28,2.58-2-1.76,1.09-1.67.3-3.08a13.93,13.93,0,0,0-1.82,0C811.21,451.08,811,451.36,810.72,451.52Zm-210,765.18c-.09-2-1.08-1.62-1.81-1.67s-1.28.06-1.25,1c0,1.35,1,.93,1.76,1S600.78,1216.94,600.77,1216.7ZM581.51,709a2.57,2.57,0,0,0-2.76,2.35c0,.21.28.63.51.7,2.16.64,1-2.08,2.3-2.33C581.57,709.67,581.54,709.45,581.51,709ZM932.42,616c.56.07,1.27-.09,1.24-.5-.06-.84.7-2-.7-2.47-.48-.15-1.25.12-1.18.49C931.92,614.37,931,615.58,932.42,616Zm-553.87-10.3v-4.45a1.41,1.41,0,0,0-2,.44Zm403.17,66.81a12.78,12.78,0,0,0,1.95-2c.16-.3-.09-.9-.31-1.28-.1-.17-.57-.22-.86-.18a.8.8,0,0,0-.79,1C781.75,670.59,781.72,671.2,781.72,672.52Zm67.87-340.89c.08-1.44.11-1.91.12-2.38,0-.68-.08-1.32-1-1.21-.28,0-.74.15-.79.33a1.91,1.91,0,0,0,0,1.29A13.64,13.64,0,0,0,849.59,331.63ZM642.69,753.55c.36.28.51.48.6.46.82-.22,2,.66,2.41-.77a1.06,1.06,0,0,0-.18-.88c-1.1-1-1.66.08-2.33.69Zm110-506a12.45,12.45,0,0,0-2,2c-.15.3.09.9.31,1.28.1.17.58.21.86.18a.81.81,0,0,0,.8-.95C752.68,249.45,752.72,248.84,752.72,247.52Zm259,98c-.73-.78-1.41-.43-2-.5-.94-.1-1,.58-1,1.24a.94.94,0,0,0,1.44.71A7.06,7.06,0,0,0,1011.72,345.53ZM588.91,1016c.89-.64,2.14,1.08,2.77-.67.11-.32-.22-1.14-.46-1.19C590,1013.81,589.38,1014.73,588.91,1016Zm63.81-272.42c-.73-.78-1.41-.43-2-.5-.94-.1-1,.58-1,1.24a.94.94,0,0,0,1.44.71A7.06,7.06,0,0,0,652.72,743.53Zm170.66-227.6c.45-1.08.9-2.15-.39-2.86a1.29,1.29,0,0,0-1.19.43C821.47,514.79,822.42,515.35,823.38,515.93Zm-174,684.94-.5.5c-.59.67-1.65,1.17-.94,2.33a1,1,0,0,0,.82.31c1.6-.16.74-1.44,1-2.23C649.74,1201.67,649.61,1201.51,649.37,1200.87ZM761,1125.17c.29-.27.41-.36.51-.48.59-.67,1.66-1.17,1-2.33a1,1,0,0,0-.82-.32c-1.62.13-.76,1.42-1,2.2C760.7,1124.36,760.81,1124.52,761,1125.17Zm70.78-610.49c1.08.45,2.15.91,2.86-.38a1.29,1.29,0,0,0-.43-1.19C833,512.77,832.39,513.73,831.81,514.68Zm-233,251.85c-.08,1.31-.12,1.78-.13,2.25,0,.66,0,1.33,1,1.23a1.2,1.2,0,0,0,.81-.32,1.18,1.18,0,0,0-.27-1.66C599.88,767.71,599.58,767.33,598.85,766.53Zm-42.78-49.65a6.58,6.58,0,0,0-.35.89c-.14,1.17,1,1.52,1.5,2.25a1.52,1.52,0,0,0,.33-.34c.61-1.17-.41-1.65-1-2.32C556.45,717.24,556.33,717.14,556.07,716.88Zm220.75,8.54a2.91,2.91,0,0,0-2.94-.06c.43.57.86,1.13,1.29,1.71ZM858.77,778c-.95-.06-1.11.55-1,1.23a.84.84,0,0,0,1,.79c.93,0,1.07-.56,1-1.25C859.64,778.29,859.35,777.9,858.77,778ZM574.6,131.76c1.3-.39,1.82.82,2.81,1.13C577.42,131,577.42,131,574.6,131.76ZM380.3,569c1.07-1.76-.39-2.15-1.17-3C378.06,567.79,379.53,568.17,380.3,569Zm287.42,2.21c0-.66-.09-1.22-1-1.23a.85.85,0,0,0-1,.79c-.07.69.08,1.25,1,1.25C667.35,572.05,667.57,571.75,667.72,571.23Zm-64,219c0-.66-.09-1.22-1-1.23a.85.85,0,0,0-1,.79c-.07.69.08,1.25,1,1.25C603.35,791.05,603.57,790.75,603.72,790.23ZM594.28,833c-.67.93-2.21,1.23-1.13,3.09C593.83,835.14,595.36,834.84,594.28,833ZM731.52,183.33c-1.95.27-1.95.27-1.12,2.51A8.79,8.79,0,0,1,731.52,183.33ZM548.6,455.64c-1-.19-2-1.19-2.64-.22-.13.17.78,1.07,1.21,1.65ZM421.54,845.49c-1.25-.4-2.52-.84-4.11.14A4.71,4.71,0,0,0,421.54,845.49ZM773.77,909c.58.11.87-.28.93-.78.07-.68-.07-1.24-1-1.25a.85.85,0,0,0-1,.79C772.66,908.48,772.82,909.09,773.77,909Zm15,102.79c-.15-.52-.37-.82-1-.82-.92,0-1.07.57-1,1.25a.84.84,0,0,0,1,.79C788.63,1013,788.71,1012.48,788.72,1011.82Zm-226,25c-.15-.52-.37-.82-1-.82-.92,0-1.07.57-1,1.25a.84.84,0,0,0,1,.79C562.63,1038,562.71,1037.48,562.72,1036.82ZM917,590.21l1.12,2.1c.78-1.43.72-2.34.08-3.3Zm-256.31,450c0-.66-.09-1.22-1-1.23a.85.85,0,0,0-1,.79c-.07.69.08,1.25,1,1.25C660.35,1041.05,660.57,1040.75,660.72,1040.23Zm-103,63.67c.16-.55-.3-.8-.77-.86-.68-.08-1.25.07-1.25,1a.84.84,0,0,0,.79,1C557.17,1105.08,557.78,1104.92,557.72,1103.9ZM845.89,1154c.56-.14.85-.38.85-1,0-.93-.57-1.07-1.25-1a.83.83,0,0,0-.79,1C844.7,1153.94,845.26,1154,845.89,1154ZM413.38,595.86c1.32-.05,2.29.68,3.18-.18l-1.22-1.78Zm251.34,597.37c0-.66-.09-1.22-1-1.23a.85.85,0,0,0-1,.79c-.07.69.08,1.25,1,1.25C664.35,1194.05,664.57,1193.75,664.72,1193.23Zm-31,92.55c-.94,1.15-2.48.63-2.66,2.57C632,1287.49,633.84,1289,633.68,1285.78Zm333.41-672.9c-.55-2.41,2.57.27,2.44-1.71C968.41,611.32,966.66,610,967.09,612.88ZM807.24,670a2.27,2.27,0,0,0,.14-2.86l-1.79,1.22Zm4,136c-.72.88-2.23,1.23-1.15,3C810.86,808.16,812.37,807.81,811.29,806ZM757.55,340.39c1.06.78,1.58,2.49,3.19,1.16C759.9,340.94,759.51,339.54,757.55,340.39Zm-155,5.92-1.89,1,1.51,1.73C603.1,348.21,602.66,347.27,602.57,346.31Zm152-252.88-2.37,1.1C754.32,95.31,755,95.05,754.59,93.43ZM862,116.17c.37.7.72,1.35,1.24,2.31C864,116.47,863.8,115.71,862,116.17Zm-129.4,5.25c2,.7,2.42.15,2.08-.75ZM568.86,1050.27a2.85,2.85,0,0,0,1.63,1.76C571,1049.94,570.27,1049.76,568.86,1050.27ZM752,148.18l1.07,2C753.71,148.69,753.9,147.64,752,148.18ZM541.85,466.52a2.85,2.85,0,0,0-3.26,0A2.88,2.88,0,0,0,541.85,466.52Zm329.35,4.87c-1.27-.31-1.27-.31-1.13,2.44C870.68,472.49,871,471.81,871.2,471.39Zm62.68,364.35,2-1.07C934.39,834,933.33,833.84,933.88,835.74ZM585.22,582.89a2.84,2.84,0,0,0,0,3.26A2.89,2.89,0,0,0,585.22,582.89ZM752.84,398.62l2.37-1.1C753.11,396.74,752.41,397,752.84,398.62Zm-271,511.75c-.44,1.71.27,2,2.32,1.16ZM871.51,399.3c-.88,0-1.86-.64-2.87.28C869.8,400.18,870.68,400.22,871.51,399.3ZM562.19,429.06l2-2.08c-1.31.13-1.84,0-2.15.24C561.45,427.67,561.57,428.29,562.19,429.06Zm326,389,2-2.05C888,816,887.18,816.26,888.16,818.09ZM532.85,863.5a2.87,2.87,0,0,0-3.27,0A2.87,2.87,0,0,0,532.85,863.5Zm66.23,1.87c-1.15-.29-1.15-.29-1.08,1.08ZM549,878.56c-2.66-1.14-2.35.05-2.13,1.33Zm204.74,51c.12.11.23.32.34.32.44,0,1,.14,1.28-.09a1.37,1.37,0,0,0,.31-1.24c-.61-.94-.92.07-1.31.34A3.6,3.6,0,0,0,753.75,929.56Zm31.93,25.93,2.08,2c-.13-1.3,0-1.84-.24-2.14C787.07,954.76,786.45,954.88,785.68,955.49Zm-240.91-303,1.89-.76c-.44-.92-1.08-.78-1.41-.62A1,1,0,0,0,544.77,652.45Zm142.55-8.54c-.54,1.77-.34,2.67.75,2.07C687.85,645.38,687.59,644.64,687.32,643.91Zm46.26-34.37a2.85,2.85,0,0,0,3.27,0A2.89,2.89,0,0,0,733.58,609.54ZM624.22,239a1.21,1.21,0,0,0,0-2A1.21,1.21,0,0,0,624.22,239Zm203.51,9c-.48-.05-.92.06-.82.65,0,.15.51.28.79.33.48.08.92,0,.82-.64C828.49,248.21,828,248.14,827.73,248Zm10.84,2.62c-.12-.2-.24-.58-.39-.59-.44,0-1-.26-1.28.32-.06.13.21.6.35.61C837.7,251,838.24,251.23,838.57,250.65ZM625.72,272c-.12-.28-.19-.76-.35-.79-.59-.1-.72.34-.64.82,0,.28.18.76.33.79C625.65,272.93,625.76,272.49,625.72,272Zm-269,317c.28-.12.76-.2.79-.35.1-.59-.34-.73-.82-.64-.28.05-.76.18-.79.33C355.81,589,356.25,589.07,356.73,589Zm191.61,25.14c-.19.12-.58.24-.59.39,0,.44-.25,1,.32,1.28.14.06.61-.21.61-.35C548.71,615,548.93,614.5,548.34,614.17ZM831.57,588.4c-.33-.59-.87-.37-1.32-.34-.14,0-.41.47-.35.61.26.57.84.35,1.28.32C831.33,589,831.45,588.59,831.57,588.4ZM601.22,721a1.21,1.21,0,0,0,0-2A1.21,1.21,0,0,0,601.22,721ZM396.72,594c-.12-.28-.19-.76-.35-.79-.59-.1-.72.34-.64.82,0,.28.18.76.33.79C396.65,594.93,396.76,594.49,396.72,594Zm559-132c-.12-.28-.19-.76-.35-.79-.59-.1-.72.34-.64.82,0,.28.18.76.33.79C955.65,462.93,955.76,462.49,955.72,462Zm9.5,8a1.21,1.21,0,0,0,0-2A1.21,1.21,0,0,0,965.22,470ZM855.34,607.88c.59-.34.37-.88.34-1.32,0-.14-.47-.41-.61-.35-.57.26-.35.83-.32,1.28C854.76,607.63,855.15,607.76,855.34,607.88ZM404.22,610a1.21,1.21,0,0,0,0-2A1.21,1.21,0,0,0,404.22,610Zm150,71a1.21,1.21,0,0,0,0-2A1.21,1.21,0,0,0,554.22,681Zm106.35,76.62c-.12-.2-.24-.58-.39-.59-.44,0-1-.26-1.28.32-.06.13.21.6.35.61C659.7,758,660.24,758.23,660.57,757.65Zm-266.8.39c-.53-.07-.95.05-.86.64,0,.15.51.28.79.33.48.08.92,0,.82-.64C394.49,758.21,394,758.14,393.77,758Zm561,44c-.48,0-.92.06-.82.65,0,.15.51.28.79.33.48.08.92,0,.82-.64C955.49,802.21,955,802.14,954.73,802ZM751.22,212a1.21,1.21,0,0,0,0,2A1.21,1.21,0,0,0,751.22,212ZM702.57,531.4c-.33-.59-.87-.37-1.32-.34-.14,0-.41.47-.35.61.26.57.84.35,1.28.32C702.33,532,702.45,531.59,702.57,531.4ZM631.22,848a1.21,1.21,0,0,0,0-2A1.21,1.21,0,0,0,631.22,848Zm22.51,6c.28-.12.76-.2.79-.35.1-.59-.34-.73-.82-.64-.28.05-.76.18-.79.33C652.81,854,653.25,854.07,653.73,854Zm81-83.51a1.21,1.21,0,0,0,2,0A1.21,1.21,0,0,0,734.71,770.52Zm22.86-61.12c-.33-.59-.87-.37-1.32-.34-.14,0-.41.47-.35.61.26.57.84.35,1.28.32C757.33,710,757.45,709.59,757.57,709.4ZM897.71,875.52a1.21,1.21,0,0,0,2,0A1.21,1.21,0,0,0,897.71,875.52ZM763.22,190a1.21,1.21,0,0,0,0,2A1.21,1.21,0,0,0,763.22,190Zm-178,699a1.21,1.21,0,0,0,0,2A1.21,1.21,0,0,0,585.22,889Zm2.5-219c-.12-.28-.19-.76-.35-.79-.59-.1-.72.34-.64.82,0,.28.18.76.33.79C587.65,670.93,587.76,670.49,587.72,670Zm209,94c-.48,0-.92.06-.82.65,0,.15.51.28.79.33.48.08.92,0,.82-.64C797.49,764.21,797,764.14,796.73,764Zm-80,156c-.48,0-.92.06-.82.65,0,.15.51.28.79.33.48.08.92,0,.82-.64C717.49,920.21,717,920.14,716.73,920Zm-163,4c.28-.12.76-.2.79-.35.1-.59-.34-.73-.82-.64-.28.05-.76.18-.79.33C552.81,924,553.25,924.07,553.73,924Zm409.61-87.86c-.19.12-.58.24-.59.39,0,.44-.25,1,.32,1.28.14.06.61-.21.61-.35C963.71,837,963.93,836.5,963.34,836.17ZM463.72,940c0-.49-.07-.92-.66-.82-.15,0-.28.5-.33.79-.08.48,0,.92.64.82C463.53,940.8,463.6,940.32,463.72,940Zm169.5,10a1.21,1.21,0,0,0,0,2A1.21,1.21,0,0,0,633.22,950Zm208-741a1.21,1.21,0,0,0,0-2A1.21,1.21,0,0,0,841.22,209ZM586.73,223c.28-.12.76-.2.79-.35.1-.59-.34-.73-.82-.64-.28.05-.76.18-.79.33C585.81,223,586.25,223.07,586.73,223Zm16.61,475.14c-.19.12-.58.24-.59.39,0,.44-.25,1,.32,1.28.14.06.61-.21.61-.35C603.71,699,603.93,698.5,603.34,698.17ZM938.22,637a1.21,1.21,0,0,0,0,2A1.21,1.21,0,0,0,938.22,637Zm-286,367a1.21,1.21,0,0,0,0,2A1.21,1.21,0,0,0,652.22,1004Zm140.35,7.64c-.12-.2-.24-.58-.39-.59-.44,0-1-.26-1.28.32-.06.13.21.6.35.61C791.7,1012,792.24,1012.23,792.57,1011.65ZM722.72,1020c-.12-.28-.19-.76-.35-.79-.59-.1-.72.34-.64.82,0,.28.18.76.33.79C722.65,1020.93,722.76,1020.49,722.72,1020ZM890.57,627.65c-.12-.2-.24-.58-.39-.59-.44,0-1-.26-1.28.32-.06.13.21.6.35.61C889.7,628,890.24,628.23,890.57,627.65ZM755.22,1031a1.21,1.21,0,0,0,0,2A1.21,1.21,0,0,0,755.22,1031Zm100.35,2.39c-.33-.59-.87-.37-1.32-.34-.14,0-.41.47-.35.61.26.57.84.35,1.28.32C855.33,1034,855.45,1033.59,855.57,1033.4Zm-104.86,2.12a1.21,1.21,0,0,0,2,0A1.21,1.21,0,0,0,750.71,1035.52ZM566.57,925.4c-.33-.59-.87-.37-1.32-.34-.14,0-.41.47-.35.61.26.57.84.35,1.28.32C566.33,926,566.45,925.59,566.57,925.4ZM407.72,620c0-.49-.07-.92-.66-.82-.15,0-.28.5-.33.79-.08.48,0,.92.64.82C407.53,620.8,407.6,620.32,407.72,620Zm248.62-1.16c.59-.34.37-.88.34-1.32,0-.14-.47-.41-.61-.35-.57.26-.35.83-.32,1.28C655.76,618.63,656.15,618.76,656.34,618.88Zm-84.61,457.64a1.21,1.21,0,0,0-2,0A1.21,1.21,0,0,0,571.73,1076.52Zm133.49-.51a1.21,1.21,0,0,0,0,2A1.21,1.21,0,0,0,705.22,1076Zm95.49-383.49a1.21,1.21,0,0,0,2,0A1.21,1.21,0,0,0,800.71,692.52ZM596.34,614.88c.59-.34.37-.88.34-1.32,0-.14-.47-.41-.61-.35-.57.26-.35.83-.32,1.28C595.76,614.63,596.15,614.76,596.34,614.88ZM586.22,1130a1.21,1.21,0,0,0,0-2A1.21,1.21,0,0,0,586.22,1130Zm198.51,11c-.48,0-.92.06-.82.65,0,.15.51.28.79.33.48.09.92,0,.82-.64C785.49,1141.21,785,1141.14,784.73,1141Zm39,91c.28-.12.76-.2.79-.35.1-.59-.34-.73-.82-.64-.28,0-.76.18-.79.33C822.81,1232,823.25,1232.07,823.73,1232Zm-132,34c-.48,0-.92.06-.82.65,0,.15.51.28.79.33.48.08.92,0,.82-.64C692.49,1266.21,692,1266.14,691.73,1266ZM841.34,575.88c.59-.34.37-.88.34-1.32,0-.14-.47-.41-.61-.35-.57.26-.35.83-.32,1.28C840.76,575.63,841.15,575.76,841.34,575.88ZM770.72,1280c0-.49-.07-.92-.66-.82-.15,0-.28.5-.33.79-.08.48,0,.92.64.82C770.53,1280.8,770.6,1280.32,770.72,1280Zm48.85-464.37-.35-.65c-.11.11-.33.25-.32.33a3.43,3.43,0,0,0,.32.67Zm-373,1-.35-.65c-.11.11-.33.25-.32.33a3.43,3.43,0,0,0,.32.67Zm272,17.71-.35-.36a4.08,4.08,0,0,0-.32.67c0,.09.21.22.32.33Zm14.15-520.86c-.11-.11-.25-.33-.33-.31a2.9,2.9,0,0,0-.67.31c.11.11.24.33.33.32A4.08,4.08,0,0,0,732.72,313.52ZM613.36,138.88l.36-.36a3.34,3.34,0,0,0-.67-.31c-.09,0-.22.2-.33.31ZM430.22,848c-.11.11-.33.25-.32.33a3.43,3.43,0,0,0,.32.67c.11-.11.33-.24.31-.33A3.34,3.34,0,0,0,430.22,848ZM845.86,150.38l.36.64c.11-.11.33-.24.31-.33a3.34,3.34,0,0,0-.31-.67ZM771.22,157c-.11.11-.33.25-.32.33a3.43,3.43,0,0,0,.32.67c.11-.11.33-.24.31-.33A3.34,3.34,0,0,0,771.22,157Zm-54.65,43.36-.35-.36a4.08,4.08,0,0,0-.32.67c0,.09.21.22.32.33Zm-72.21,672.5.36-.36a3.34,3.34,0,0,0-.67-.31c-.09,0-.22.2-.33.31Zm-72.5-648.5.36.64c.11-.11.33-.24.31-.33a3.34,3.34,0,0,0-.31-.67Zm222,652.29.36.35a2.9,2.9,0,0,0,.31-.67c0-.08-.2-.22-.31-.33ZM885.22,228c-.11.11-.33.25-.32.33a3.43,3.43,0,0,0,.32.67c.11-.11.33-.24.31-.33A3.34,3.34,0,0,0,885.22,228ZM791.36,882.88l.36-.36a3.34,3.34,0,0,0-.67-.31c-.09,0-.22.2-.33.31Zm-76.79,1.79-.35-.65c-.11.11-.33.25-.32.33a3.43,3.43,0,0,0,.32.67Zm-9.5-628.79.65-.36c-.11-.11-.25-.33-.33-.31a2.9,2.9,0,0,0-.67.31Zm-155.71,642,.36-.36a3.34,3.34,0,0,0-.67-.31c-.09,0-.22.2-.33.31Zm70.5-639.5.36.64c.11-.11.33-.24.31-.33a3.34,3.34,0,0,0-.31-.67ZM556.57,666.67l-.35-.65c-.11.11-.33.25-.32.33a3.43,3.43,0,0,0,.32.67Zm313,30.71-.35-.36a4.08,4.08,0,0,0-.32.67c0,.09.21.22.32.33Zm-280.71-425,.36.64c.11-.11.33-.24.31-.33a3.34,3.34,0,0,0-.31-.67Zm407.5,81.79-.64.35c.11.11.24.33.33.32a4.08,4.08,0,0,0,.67-.32ZM709.22,359c-.11.11-.33.25-.32.33a3.43,3.43,0,0,0,.32.67c.11-.11.33-.24.31-.33A3.34,3.34,0,0,0,709.22,359ZM640.86,924.38l.36.64c.11-.11.33-.24.31-.33a3.34,3.34,0,0,0-.31-.67ZM886.22,719c-.11.11-.33.25-.32.33a3.43,3.43,0,0,0,.32.67c.11-.11.33-.24.31-.33A3.34,3.34,0,0,0,886.22,719Zm-270.5,209.5c-.11-.11-.25-.33-.33-.31a2.9,2.9,0,0,0-.67.31c.11.11.24.33.33.32A4.08,4.08,0,0,0,615.72,928.52ZM984.57,379.67l-.35-.65c-.11.11-.33.25-.32.33a3.43,3.43,0,0,0,.32.67Zm-251.85,1.85c-.11-.11-.25-.33-.33-.31a2.9,2.9,0,0,0-.67.31c.11.11.24.33.33.32A4.08,4.08,0,0,0,732.72,381.52ZM851.57,661.67l-.35-.65c-.11.11-.33.25-.32.33a3.43,3.43,0,0,0,.32.67Zm31.79-192.5-.64.35c.11.11.24.33.33.32a4.08,4.08,0,0,0,.67-.32ZM667.07,951.88l.65-.36c-.11-.11-.25-.33-.33-.31a2.9,2.9,0,0,0-.67.31Zm20.29-298,.36-.36a3.34,3.34,0,0,0-.67-.31c-.09,0-.22.2-.33.31Zm74.36,300.64c-.11-.11-.25-.33-.33-.31a2.9,2.9,0,0,0-.67.31c.11.11.24.33.33.32A4.08,4.08,0,0,0,761.72,954.52ZM312.57,491.67l-.35-.65c-.11.11-.33.25-.32.33a3.43,3.43,0,0,0,.32.67ZM878.22,510c-.11.11-.33.25-.32.33a3.43,3.43,0,0,0,.32.67c.11-.11.33-.24.31-.33A3.34,3.34,0,0,0,878.22,510Zm-134.5,2.5c-.11-.11-.25-.33-.33-.31a2.9,2.9,0,0,0-.67.31c.11.11.24.33.33.32A4.08,4.08,0,0,0,743.72,512.52Zm-58.5.5c-.11.11-.33.25-.32.33a3.43,3.43,0,0,0,.32.67c.11-.11.33-.24.31-.33A3.34,3.34,0,0,0,685.22,513ZM938.86,635.67l.36.35a2.9,2.9,0,0,0,.31-.67c0-.08-.2-.22-.31-.33ZM670.07,986.17l-.35.35a3.43,3.43,0,0,0,.67.32c.08,0,.22-.21.33-.32Zm-1.85.85c-.11.11-.33.25-.32.33a3.43,3.43,0,0,0,.32.67c.11-.11.33-.24.31-.33A3.34,3.34,0,0,0,668.22,987Zm-17.86,9.86.36-.36a3.34,3.34,0,0,0-.67-.31c-.09,0-.22.2-.33.31Zm23.71-367.71-.35.35a3.43,3.43,0,0,0,.67.32c.08,0,.22-.21.33-.32Zm-43.5-353.5-.35-.65c-.11.11-.33.25-.32.33a3.43,3.43,0,0,0,.32.67Zm20,458.71-.35-.36a4.08,4.08,0,0,0-.32.67c0,.09.21.22.32.33Zm199.5-220.5.65-.36c-.11-.11-.25-.33-.33-.31a2.9,2.9,0,0,0-.67.31Zm-237.5,114.5-.35-.36a4.08,4.08,0,0,0-.32.67c0,.09.21.22.32.33ZM601.72,524.52c-.11-.11-.25-.33-.33-.31a2.9,2.9,0,0,0-.67.31c.11.11.24.33.33.32A4.08,4.08,0,0,0,601.72,524.52Zm87.85,496.86-.35-.36a4.08,4.08,0,0,0-.32.67c0,.09.21.22.32.33ZM363.36,551.88l.36-.36a3.34,3.34,0,0,0-.67-.31c-.09,0-.22.2-.33.31Zm-11,1.29-.64.35c.11.11.24.33.33.32a4.08,4.08,0,0,0,.67-.32Zm372.21,2.5-.35-.65c-.11.11-.33.25-.32.33a3.43,3.43,0,0,0,.32.67Zm261.79,1.21.36-.36a3.34,3.34,0,0,0-.67-.31c-.09,0-.22.2-.33.31ZM464.57,737.38l-.35-.36a4.08,4.08,0,0,0-.32.67c0,.09.21.22.32.33Zm0,2.29-.35-.65c-.11.11-.33.25-.32.33a3.43,3.43,0,0,0,.32.67Zm140.79,307.21.36-.36a3.34,3.34,0,0,0-.67-.31c-.09,0-.22.2-.33.31Zm-206.29-474,.65-.36c-.11-.11-.25-.33-.33-.31a2.9,2.9,0,0,0-.67.31Zm419.29,5,.36-.36a3.34,3.34,0,0,0-.67-.31c-.09,0-.22.2-.33.31Zm-40.79,488.5-.35-.36a4.08,4.08,0,0,0-.32.67c0,.09.21.22.32.33Zm2.5,1.5.65-.36c-.11-.11-.25-.33-.33-.31a2.9,2.9,0,0,0-.67.31ZM720.86,590.67l.36.35a2.9,2.9,0,0,0,.31-.67c0-.08-.2-.22-.31-.33ZM432.22,591c-.11.11-.33.25-.32.33a3.43,3.43,0,0,0,.32.67c.11-.11.33-.24.31-.33A3.34,3.34,0,0,0,432.22,591Zm181.35,485.65-.35-.65c-.11.11-.33.25-.32.33a3.43,3.43,0,0,0,.32.67Zm134-316.29-.35-.36a4.08,4.08,0,0,0-.32.67c0,.09.21.22.32.33Zm110.29,335.29.36.35a2.9,2.9,0,0,0,.31-.67c0-.08-.2-.22-.31-.33Zm-250-309,.36.35a2.9,2.9,0,0,0,.31-.67c0-.08-.2-.22-.31-.33Zm-105.29,1-.35-.65c-.11.11-.33.25-.32.33a3.43,3.43,0,0,0,.32.67Zm73.79,340.21.36-.36a3.34,3.34,0,0,0-.67-.31c-.09,0-.22.2-.33.31Zm326.21-419.5-.35-.36a4.08,4.08,0,0,0-.32.67c0,.09.21.22.32.33Zm-291,420-.35-.36a4.08,4.08,0,0,0-.32.67c0,.09.21.22.32.33Zm232,5-.35-.36a4.08,4.08,0,0,0-.32.67c0,.09.21.22.32.33Zm-227-341.71-.35-.65c-.11.11-.33.25-.32.33a3.43,3.43,0,0,0,.32.67Zm218.15-52.15c-.11-.11-.25-.33-.33-.31a2.9,2.9,0,0,0-.67.31c.11.11.24.33.33.32A4.08,4.08,0,0,0,834.72,739.52Zm14.14,446.15.36.35a2.9,2.9,0,0,0,.31-.67c0-.08-.2-.22-.31-.33Zm-221.79,6.21.65-.36c-.11-.11-.25-.33-.33-.31a2.9,2.9,0,0,0-.67.31ZM758.36,688.17l-.64.35c.11.11.24.33.33.32a4.08,4.08,0,0,0,.67-.32ZM724.22,1195c-.11.11-.33.25-.32.33a3.43,3.43,0,0,0,.32.67c.11-.11.33-.24.31-.33A3.34,3.34,0,0,0,724.22,1195ZM566.57,613.67l-.35-.65c-.11.11-.33.25-.32.33a3.43,3.43,0,0,0,.32.67Zm-187-3-.35-.65c-.11.11-.33.25-.32.33a3.43,3.43,0,0,0,.32.67Zm200.15,619.85c-.11-.11-.25-.33-.33-.31a2.9,2.9,0,0,0-.67.31c.11.11.24.33.33.32A4.08,4.08,0,0,0,579.72,1230.52ZM794.86,800.67l.36.35a2.9,2.9,0,0,0,.31-.67c0-.08-.2-.22-.31-.33Zm91.5-128.79.36-.36a3.34,3.34,0,0,0-.67-.31c-.09,0-.22.2-.33.31Zm-254,600,.36-.36a3.34,3.34,0,0,0-.67-.31c-.09,0-.22.2-.33.31ZM933.22,810c-.11.11-.33.25-.32.33a3.43,3.43,0,0,0,.32.67c.11-.11.33-.24.31-.33A3.34,3.34,0,0,0,933.22,810Zm-80.5-68.5c-.11-.11-.25-.33-.33-.31a2.9,2.9,0,0,0-.67.31c.11.11.24.33.33.32A4.08,4.08,0,0,0,852.72,741.52ZM735.22,1287c-.11.11-.33.25-.32.33a3.43,3.43,0,0,0,.32.67c.11-.11.33-.24.31-.33A3.34,3.34,0,0,0,735.22,1287Z"/><path class="cls-3" d="M1137.45,889.63c0,.42-.36.42-.57.55a19.89,19.89,0,0,0-3.67,2.71,11.7,11.7,0,0,0-3.35,7.13,6,6,0,0,0,1.27,4.18,18.72,18.72,0,0,0,5.52,4.85c2.4,1.53,4.95,2.77,7.4,4.18a25.35,25.35,0,0,1,6.76,5.51,6.7,6.7,0,0,1,1.86,4.94c-.05.62,0,1.26-.07,1.86a4.45,4.45,0,0,1-4.63,3.73,10.52,10.52,0,0,1-2.42-.38c-3.83-1.29-7.67-2.58-11.54-3.77-1.75-.54-3.59-.75-5.39-1.12a25.5,25.5,0,0,0-6.51-.43,8.87,8.87,0,0,0-6.47,2.64,6.17,6.17,0,0,0-1.25,2,5,5,0,0,1-.61,1.45c-.23,0-.18-.25-.3-.35-.42.4-.42.4,0,.73a.75.75,0,0,1,0,.22,5.61,5.61,0,0,0,.28,5.65c1.37,2.48,2.76,5,4.22,7.37s2.7,4.6,4.07,6.88c1.6,2.69,3,5.49,4.35,8.28a7.92,7.92,0,0,1,.68,2,9.9,9.9,0,0,0,1.31,2.91,30.51,30.51,0,0,1,1.45,2.85,26.55,26.55,0,0,0,1.55,2.94,16.31,16.31,0,0,1,1.94,4.62,5.55,5.55,0,0,1,.16,1.71,12.2,12.2,0,0,1-2.91,7.76,9.9,9.9,0,0,1-2,1.68,23.61,23.61,0,0,1-4.88,2.55,39.55,39.55,0,0,1-7.46,1.94c-1.65.25-3.33.42-5,.59a70.89,70.89,0,0,0-7.84.85,1.76,1.76,0,0,0-1.24.66c0,.34.18.47.42.58a18.35,18.35,0,0,0,3.32.91,39.93,39.93,0,0,1,5.77,2.05,30.32,30.32,0,0,1,5.81,3.18,15.23,15.23,0,0,1,5.2,5.81,10,10,0,0,1,1.12,4.74,20.92,20.92,0,0,0,0,2.24,9,9,0,0,1-2.07,5.91,26.49,26.49,0,0,1-8.37,7.17c-.75.43-1.51.83-2.25,1.27-1.34.79-1.5,1.8-.41,2.93a22.11,22.11,0,0,1,5,8,20.1,20.1,0,0,1,1.2,6.12,23.27,23.27,0,0,1-2.28,10.47,48.19,48.19,0,0,1-4.17,7.79,32.31,32.31,0,0,1-3.19,4.05,17.57,17.57,0,0,1-5.85,4,25.25,25.25,0,0,1-6.25,1.68,21.33,21.33,0,0,1-3.3.33c-2.24,0-4.48,0-6.71,0-1.77,0-3.51-.34-5.27-.44s-3.33-.47-5-.58c-1.13-.07-2.25-.36-3.39-.52-1.73-.25-3.45-.61-5.18-.94-2.88-.54-5.77-1.1-8.65-1.67a56.54,56.54,0,0,0-5.77-1.13,2.22,2.22,0,0,0-2.57,1.45,11.59,11.59,0,0,0-.66,1.59,15.49,15.49,0,0,1-1.87,3.44,4.54,4.54,0,0,1-3,2,2,2,0,0,1-1.19-.21,3.67,3.67,0,0,1-2.19-3c0-.46,0-.91,0-1.37a3.61,3.61,0,0,1,.34-1.52,6.89,6.89,0,0,0,.64-3.11c-.06-1.14-.34-1.59-1.42-1.9-1.61-.45-3.23-.85-4.86-1.23s-3.28-.68-4.91-1.06a25.78,25.78,0,0,0-2.9-.48,25.25,25.25,0,0,1-5.77-1.1,3.4,3.4,0,0,1-2.52-3.49,16.54,16.54,0,0,1,.41-3.28c.42-1.69,1.56-2.06,3.21-1.91a58.81,58.81,0,0,1,9.46,1.94c2.92.77,5.83,1.6,8.75,2.37a14.08,14.08,0,0,0,2.16.48,2.1,2.1,0,0,0,2.18-1.29,11.24,11.24,0,0,0,.61-1.86c.78-2.33,1.55-4.65,2.31-7l5-15.4a9.15,9.15,0,0,1,.29-.93,1.81,1.81,0,0,1,1.09-1.06,8.59,8.59,0,0,1,3.84-.66,2.14,2.14,0,0,1,2.09,1.83c-.19,0-.43-.08-.48.18s0,.45.35.46c.16-.22.09-.45.08-.69a1.74,1.74,0,0,1,.6,1.49,11.92,11.92,0,0,1-.71,4.22c-1.1,3.51-2.53,6.91-3.6,10.43-1,3.33-2.12,6.62-3.22,9.91-.12.36-.16.72-.26,1.08a1.92,1.92,0,0,0,1.44,2.65c1.84.55,3.71,1,5.56,1.48,2.84.75,5.73,1.31,8.6,1.91,1.28.27,2.59.39,3.88.57l5.47.72a1.07,1.07,0,0,0,.25,0c2.52-.09,5,.45,7.54.26a39,39,0,0,0,11.07-2,19.94,19.94,0,0,0,6.9-4.24,16.76,16.76,0,0,0,4.09-7.09,16.39,16.39,0,0,0,.78-7.19,14.9,14.9,0,0,0-1.38-4.2,29.22,29.22,0,0,0-5.2-7.6,2.8,2.8,0,0,0-2.58-.88,30.86,30.86,0,0,1-3.31.31,40.78,40.78,0,0,1-12.58-2.45,19.87,19.87,0,0,1-6.86-4.24,28.93,28.93,0,0,1-5.68-7.7,28.56,28.56,0,0,1-2.7-8.74,37.35,37.35,0,0,1-.19-5.06,5.5,5.5,0,0,1,.74-2.45c.52-1.06,1.12-2.1,1.72-3.12a18.62,18.62,0,0,1,4.84-5,32.29,32.29,0,0,1,6.1-3.67,70.21,70.21,0,0,1,9.32-3.41,53.87,53.87,0,0,1,5.71-1.37c1.41-.27,2.83-.41,4.25-.6l3.28-.44c.12,0,.25-.05.37-.05,1.82.13,3.6-.39,5.42-.26,2.32.16,4.61-.26,6.92-.31a13.77,13.77,0,0,0,4-.7,7,7,0,0,0,4.48-4.77,3.38,3.38,0,0,0-.77-2.9,18,18,0,0,0-1.19-1.57,34,34,0,0,1-2.52-4.07c-.32-.53-.69-1-1-1.56a14.22,14.22,0,0,1-1.18-3.21,18.46,18.46,0,0,0-.93-2.41c-1.74-3.86-3.66-7.63-5.65-11.36-1.32-2.47-2.58-5-3.75-7.5a55.18,55.18,0,0,1-2.79-6.29A13.16,13.16,0,0,1,1105,932a9.72,9.72,0,0,1,.88-4.06,17.63,17.63,0,0,0,.59-1.87,13.58,13.58,0,0,1,4.58-7.55,11.84,11.84,0,0,1,4.84-2.33,15.72,15.72,0,0,1,5.37-.48,16.85,16.85,0,0,1,3.16.39,2.24,2.24,0,0,0,1.23,0c1-.25,1.28-.77.82-1.72-.55-1.15-1.18-2.25-1.77-3.38a21.82,21.82,0,0,1-2.46-7.67c-.16-1.47-.69-3-.09-4.51a16.78,16.78,0,0,1,1.34-6.33,19.54,19.54,0,0,1,7.8-10,31.07,31.07,0,0,1,5.74-2.79,96,96,0,0,1,9.4-2.71c1.7-.47,3.41-.86,5.1-1.32a11.34,11.34,0,0,0,3.12-1.44c.59-.37,1.23-.66,1.85-1s1-.48,1.4-.77a2.65,2.65,0,0,0,.9-4,43,43,0,0,0-2.59-3.44c-1.35-1.65-2.76-3.26-4.15-4.88a5.86,5.86,0,0,0-.6-.62c-1.78-1.68-3.34-3.56-5.27-5.08a3.78,3.78,0,0,1-1.12-2.28,3.08,3.08,0,0,0-1.29-1.89c-1.33-1-2.76-1.9-4.09-2.94a41.76,41.76,0,0,1-4.14-3.49A50.17,50.17,0,0,1,1131,839c-1.06-1.4-2.1-2.83-3-4.33a26.9,26.9,0,0,1-2.89-6.48,16.59,16.59,0,0,1-.63-6.1,11.09,11.09,0,0,1,4.19-7.55,16.94,16.94,0,0,1,6.76-3.65,16.42,16.42,0,0,1,7.15-.61c1.69.29,3.4.47,5.09.76,2,.35,4,1,6,1.41a15.44,15.44,0,0,0,6.13.17,4.91,4.91,0,0,1,.86,0c.87,0,1.75,0,2.61,0,3.19.15,6.35-.38,9.53-.28A10.11,10.11,0,0,0,1175,812c1.2-.25,1.53-1.15.77-2.1a23.31,23.31,0,0,0-3-3c-.41-.35-.83-.67-1.21-1.05-3.75-3.74-7.6-7.4-11.22-11.27-2.7-2.91-5.62-5.6-8.27-8.55a2.44,2.44,0,0,0-2.21-.91c-1.61.22-3.23.51-4.85.7-1.78.2-3.55.61-5.37.1a3.4,3.4,0,0,1-2.86-3.24,13.47,13.47,0,0,1-.25-2.69c.05-2.12.87-3,2.66-3.68a39,39,0,0,1,7-1.76c2.29-.43,4.6-.72,6.91-1,1.78-.24,3.58-.42,5.34-.74,4.19-.77,8.36-1.62,12.12-3.82,3-1.77,3.82-4.35,3.41-7.33a9.76,9.76,0,0,0-3.6-6,20.16,20.16,0,0,0-4.65-3,41.18,41.18,0,0,1-4.4-2.46,8,8,0,0,1-1.75-1.33,2.65,2.65,0,0,0-3.08-.64c-1.29.39-2.59.76-3.91,1a41.2,41.2,0,0,1-5.55.93c-2.5.16-5,.35-7.5.5s-4.84.34-7.25.5-4.84.35-7.26.49-5,.34-7.5.5c-2.33.15-4.65.45-7,.47a59.46,59.46,0,0,1-11.92-1.51,30.72,30.72,0,0,1-12.44-5.87,14.74,14.74,0,0,1-5.12-7,13.12,13.12,0,0,1-.62-4c.08-4.15,1.3-7.91,4.49-10.8a18.73,18.73,0,0,1,5.27-3.35,30.06,30.06,0,0,1,6.82-1.9,16.39,16.39,0,0,1,3.06-.35c2,0,4,0,6,0a60.75,60.75,0,0,1,8.08.69,103.16,103.16,0,0,1,13.41,2.87c3.16.82,6.24,2,9.31,3.08a100.8,100.8,0,0,1,11.46,5,63.86,63.86,0,0,1,9.77,6.14,8,8,0,0,1,.89.86,3.48,3.48,0,0,0,3.88.86A43.27,43.27,0,0,0,1176,731a24.16,24.16,0,0,0,7.77-9.29,18.9,18.9,0,0,0,1-3.67,11.71,11.71,0,0,0-.23-5.73c-1.12-3.91-3.57-6.42-7.63-7.19a20.81,20.81,0,0,0-6.4,0c-2.16.26-4.25.83-6.37,1.22a4.7,4.7,0,0,1-3.72-.92,3.2,3.2,0,0,1-1.21-2.6,14.3,14.3,0,0,1,.66-4.35c.36-1.26.88-2.47,1.14-3.76.76-3.81.71-7.53-1.15-11.07a9.18,9.18,0,0,0-1.34-1.92,13.93,13.93,0,0,1-1.65-2c-.64-1-1.39-1.21-2.69-.8-1.52.49-3,1-4.54,1.51-4.87,1.56-9.73,3.12-14.67,4.41-2.61.68-5.21,1.35-7.83,2s-5.26,1.13-7.9,1.66c-1.8.37-3.6.74-5.43.94-.93.11-1.88.21-2.8.35a24,24,0,0,0-3.29.4.87.87,0,0,1-.36,0c-1.82-.15-3.61.28-5.43.27-4.31,0-8.62.09-12.92-.05-1.93-.07-3.88-.08-5.8-.25s-3.77-.23-5.63-.49c-1.7-.24-3.41-.4-5.11-.64-1.9-.28-3.81-.55-5.7-.85s-3.51-.76-5.27-1.11a66.15,66.15,0,0,1-8.94-2.58,39.65,39.65,0,0,1-8-3.8,17.47,17.47,0,0,1-4-3.45,3.25,3.25,0,0,1,.11-4.44,9.87,9.87,0,0,1,3.46-2.1,127.24,127.24,0,0,1,18.61-5.68c2.78-.64,5.58-1.23,8.42-1.63,1.81-.26,3.62-.67,5.43-.88s3.58-.45,5.38-.62a16,16,0,0,0,3.77-.41.71.71,0,0,1,.25,0,46.83,46.83,0,0,0,5.3-.32c1.94-.11,3.89,0,5.8-.24a36.73,36.73,0,0,1,4.44-.19c4.72,0,9.44-.09,14.16,0,2,.06,4,.07,6,.26,1.19.11,2.39,0,3.56.22,2.19.32,4.4.37,6.6.66,1.62.22,3.26.35,4.88.58,1.93.29,3.88.52,5.81.9s3.77.68,5.66,1c2.73.52,5.41,1.23,8.1,1.9,1,.23,1.88.54,2.84.78a5.17,5.17,0,0,0,3-.08q3.3-1.18,6.51-2.6a38.9,38.9,0,0,0,6.38-3.45,21.24,21.24,0,0,0,7.7-9,19.25,19.25,0,0,0,1.51-5.68,17.83,17.83,0,0,0,.2-2.82c-.19-4.58-1.14-9-3.78-12.81a27.63,27.63,0,0,0-8.08-7.71,60.34,60.34,0,0,0-13.52-5.82c-2-.66-4-1.18-6-1.78a7.26,7.26,0,0,1-1.37-.51,4.33,4.33,0,0,0-3.69-.08,28,28,0,0,1-5.84,1.31,32,32,0,0,1-6.91.27,41,41,0,0,1-12.09-2.5,21.17,21.17,0,0,1-8.55-5.63,9.2,9.2,0,0,1-2.44-7.14,9.81,9.81,0,0,1,1.16-3.6,17.63,17.63,0,0,1,7.8-7.46,15.38,15.38,0,0,1,8.23-1.63,53.55,53.55,0,0,1,14.21,3.08,86.64,86.64,0,0,1,9.68,4.22,3.25,3.25,0,0,0,1.52.49,1.34,1.34,0,0,0,1.53-1,8.89,8.89,0,0,0,.53-2.78,26,26,0,0,0-.62-7,17.65,17.65,0,0,0-2.23-5.07,11.65,11.65,0,0,0-3.14-3.77.26.26,0,0,1-.08-.33l0,0c.56-.17.57-.53.38-1a.64.64,0,0,0-.64.73l0,0c-.82,0-1.3-.62-1.92-1a33.51,33.51,0,0,1-3.68-2.44c-1.76-1.34-2.44-2.67-1.69-5.19a3.62,3.62,0,0,1,4.14-2.32,7.3,7.3,0,0,1,2.07.73,25.69,25.69,0,0,1,4.25,2.93,31.29,31.29,0,0,1,2.54,2.34,35.78,35.78,0,0,1,7.62,11.81,8.89,8.89,0,0,1,.36,1.67,42.17,42.17,0,0,1,.51,9.85,10,10,0,0,1-1,4.25c-1,1.81-1.84,3.67-2.78,5.5-.35.69-.8,1.33-1.18,2a1.07,1.07,0,0,0,.22,1.55,2.64,2.64,0,0,0,1.24.77,53.89,53.89,0,0,1,13.07,5.88,55.13,55.13,0,0,1,7,5,39.83,39.83,0,0,1,6.6,7.13,26.76,26.76,0,0,1,4.3,8.23,29.64,29.64,0,0,1,1,5.78,31.91,31.91,0,0,1,.18,4.68,30.19,30.19,0,0,1-1.45,8.68,21.42,21.42,0,0,1-4.55,7.37c-.69.71-1.4,1.4-2.1,2.11a.48.48,0,0,1-.43.18c0-.16.13-.4-.17-.43-.07,0-.23.14-.22.21,0,.3.27.15.43.17-.25.94-1.17,1.23-1.81,1.74a54.54,54.54,0,0,1-7.54,4.83,82.24,82.24,0,0,1-8.56,4,4.2,4.2,0,0,0-1.45.92c-.64.68-.74,1-.2,1.73a26.65,26.65,0,0,1,2.3,4.06,25.37,25.37,0,0,1,1.94,6.68c.14.85.18,1.7.24,2.57a26.49,26.49,0,0,1-.34,3.67,6.24,6.24,0,0,0,0,1c.07,1.05.46,1.45,1.47,1.36,1.3-.11,2.59-.31,3.89-.47a3.18,3.18,0,0,1,.62,0,18.82,18.82,0,0,1,11.27,3.93,16.47,16.47,0,0,1,5.19,7.51,15.32,15.32,0,0,1,1,5.77c0,.62.35,1.18.23,1.82-.33,1.69-.16,3.44-.51,5.13a23.83,23.83,0,0,1-2.22,6.47,27.85,27.85,0,0,1-3.92,5.63,39.25,39.25,0,0,1-10.21,7.76c-2.19,1.23-4.53,2.11-6.72,3.33-.11.06-.26,0-.35.11-.43.37-1,.67-1,1.34s.55.9,1,1.13a32.48,32.48,0,0,1,4.56,2.66,18.6,18.6,0,0,1,5.79,6.58,17.37,17.37,0,0,1,1.68,4.33,20.66,20.66,0,0,1,.24,7,22.71,22.71,0,0,1-1.26,5.09,11.28,11.28,0,0,1-5.61,6.26.63.63,0,0,1-.24,0c-.06-.27-.2-.31-.42-.13a.49.49,0,0,0,.46.09,4.19,4.19,0,0,1-2.14,1.28,84.92,84.92,0,0,1-8.21,2.88c-.81.26-1.66.44-2.47.69a6.89,6.89,0,0,0-1.26.5,1.29,1.29,0,0,0-.41,2.23,28.15,28.15,0,0,0,4,3.88,3.06,3.06,0,0,1,.46.42c1.85,2,4,3.76,5.93,5.63s4.1,3.81,6.19,5.68c2.73,2.46,5.42,5,8,7.56a6.4,6.4,0,0,0,1.22,1.05c1.2.73,2.47.44,3.74.34.24,0,.48-.13.72-.13,2.26,0,4.49-.41,6.75-.56,2.45-.17,4.92-.29,7.37-.49,4.75-.4,9.5-.16,14.25-.17,2.25,0,4.5.19,6.76.4,1.26.12,2.53.27,3.8.33a20.19,20.19,0,0,1,3.27.5,53.85,53.85,0,0,1,5.69,1.44,20.86,20.86,0,0,1,9.46,6.44,12,12,0,0,1,3,8.24c0,.41,0,.83,0,1.24a12.53,12.53,0,0,1-2.16,7.32,18.31,18.31,0,0,1-7.64,6.92,24.07,24.07,0,0,1-6,1.86,37.56,37.56,0,0,1-9,.45,30.45,30.45,0,0,1-4.72-.73,38.48,38.48,0,0,1-6.76-1.71l-2.19-.86.52-.57L1212,839c-.31.2-.14.52-.37.75a69.53,69.53,0,0,1-6.3-3.25c-2.67-1.59-5.28-3.31-7.83-5.09-2.35-1.63-4.67-3.32-6.9-5.12s-4.36-3.48-6.5-5.26a4.31,4.31,0,0,0-3.86-.78c-.93.2-1.87.25-2.79.37-1.09.14-2.2.27-3.3.36-1.26.1-2.53.21-3.78.39-1.09.16-2.21.17-3.31.32a5.14,5.14,0,0,0-1.1.17,1.5,1.5,0,0,0-1.14,1.8,15,15,0,0,0,.81,2.7,2,2,0,0,1,0,1.82l.43,0a35.25,35.25,0,0,1,.61,6,19.71,19.71,0,0,1,.2,3.07c-.28,1.76-.11,3.54-.27,5.3s-.29,3.26-.49,4.89a13.09,13.09,0,0,1-1.73,5.32,5.79,5.79,0,0,1-1.46,1.5c-.23.18-.47.33-.69.51a1.39,1.39,0,0,0-.24,2.23c.44.54,1,1,1.44,1.54a16.2,16.2,0,0,1,4.09,7.19,11,11,0,0,1-.76,7.91,16.2,16.2,0,0,1-3.65,5.36,27.37,27.37,0,0,1-4.24,3.14,45.82,45.82,0,0,1-11.91,4.42,60.31,60.31,0,0,0-8.69,3c-.26.12-.49.35-.81.19-.06-.27-.2-.32-.42-.13A.51.51,0,0,0,1137.45,889.63ZM1125.38,744c3.1,0,6.19-.05,9.28-.2A60.4,60.4,0,0,0,1144,743c1.92-.39,3.83-.85,5.72-1.36.65-.18,1.27-.45,1.4-1.22s-.43-1.19-1-1.57c-.11-.07-.19-.16-.3-.23-1.65-1-3.27-2-5-2.92a94.7,94.7,0,0,0-9.23-4.07,106.75,106.75,0,0,0-10.62-3.42c-2.6-.71-5.2-1.39-7.85-1.87q-2.76-.51-5.57-.85c-1-.13-2.06-.11-3.07-.25-1.91-.27-3.84-.3-5.76-.46a22.26,22.26,0,0,0-2.94.23,17.06,17.06,0,0,0-8.08,2.34,7.7,7.7,0,0,0-3.9,4.91,7,7,0,0,0,3,7.7,17,17,0,0,0,4.48,2.31,39.22,39.22,0,0,0,12,1.93c4.2.14,8.42.09,12.63-.19C1121.65,743.84,1123.52,744,1125.38,744Zm-20.69-74.44a1.57,1.57,0,0,1-.33,0c-2.93-.14-5.85.29-8.78.27a1.6,1.6,0,0,0-.49,0c-1.65.49-3.35.19-5,.4a22.92,22.92,0,0,1-4.54.33.69.69,0,0,0-.25,0c-1.22.44-2.52.21-3.78.4-1.61.24-3.26.37-4.87.63-2.13.34-4.26.71-6.38,1.13a108.07,108.07,0,0,0-11.62,3,5.89,5.89,0,0,0-1.36.59c-.78.48-.82,1.07-.17,1.71a3.76,3.76,0,0,0,1.79.79c2.61.68,5.25,1.17,7.92,1.59,2.47.38,5,.62,7.42.88s4.83.35,7.25.5c2.88.18,5.76.08,8.65.25a72,72,0,0,0,9.4-.19c1.69-.13,3.42.17,5.08-.09,1.84-.28,3.69-.12,5.53-.36s3.59-.38,5.37-.63c2.58-.35,5.13-.91,7.69-1.43s5.2-1.05,7.78-1.65,4.92-1.18,7.36-1.86c2.2-.61,4.38-1.32,6.55-2,.56-.19,1.25-.52,1.18-1.25s-.8-.76-1.35-.88c-.88-.2-1.77-.35-2.67-.49-1.41-.21-2.82-.45-4.24-.58-1-.09-2-.23-3.06-.32-1.67-.16-3.33-.45-5-.45a4.28,4.28,0,0,1-.62,0,37.94,37.94,0,0,0-6.38-.43c-5.29-.14-10.6,0-15.89,0a3.19,3.19,0,0,1-1.2-.07c-.2-.13.09-.59-.46-.47S1105,669.35,1104.69,669.51Zm-14,328.35a19.78,19.78,0,0,0-6.75,1,10.71,10.71,0,0,0-4.62,2.76c-1.69,1.71-1.94,3.88-1.61,6.12a17.18,17.18,0,0,0,3.17,7.68,15.39,15.39,0,0,0,6,5.16,17.8,17.8,0,0,0,11,1.14,31.91,31.91,0,0,0,11.44-4.65,27.81,27.81,0,0,0,5.6-4.83,3.92,3.92,0,0,0-.14-5.67,10.46,10.46,0,0,0-2.19-1.79,52.13,52.13,0,0,0-5.26-3,48.58,48.58,0,0,0-8.27-2.66A27.93,27.93,0,0,0,1090.68,997.86ZM1214,816.44c-1.88.15-4.22-.1-6.58.19-1.86.23-3.74.35-5.62.51-1.64.14-3.24.46-4.88.56a2.92,2.92,0,0,0-1,.26,1.08,1.08,0,0,0-.44,1.66,3.7,3.7,0,0,0,.79.79c2.48,1.81,5,3.54,7.65,5.1,3,1.75,6,3.38,9.13,4.85a48.18,48.18,0,0,0,7.67,2.95,37.91,37.91,0,0,0,5.78,1.06,17,17,0,0,0,3.18-.16,40.18,40.18,0,0,0,4.27-.55,20.1,20.1,0,0,0,6.39-2.1,5.2,5.2,0,0,0,2.72-3.38,7.38,7.38,0,0,0-.07-3.79,8.6,8.6,0,0,0-5-5.39,21.31,21.31,0,0,0-7.74-1.77c-2.25-.15-4.5-.34-6.74-.49a46.73,46.73,0,0,0-5.67-.31C1216.76,816.49,1215.6,816.44,1214,816.44Zm-55.73,20c-.1-2.11-.08-3.54-.23-5a21,21,0,0,0-1.1-4.79,11.74,11.74,0,0,0-6.21-6.69,23.15,23.15,0,0,0-8.37-2.21A12.25,12.25,0,0,0,1132,821.9a5,5,0,0,0-.85,5.85,22.52,22.52,0,0,0,4.35,6.24,49.73,49.73,0,0,0,6.8,6.08,42,42,0,0,0,7.22,4.41,10.62,10.62,0,0,0,5.23,1.23,2.91,2.91,0,0,0,1.68-.68,4.31,4.31,0,0,0,1.55-3.39C1158,839.67,1158.44,837.71,1158.25,836.4ZM1130,597.47c-1.63.08-2.77.08-3.92.23a8.73,8.73,0,0,0-4.9,2.66,2.18,2.18,0,0,0-.52,2.4,5.65,5.65,0,0,0,2.75,3c3.56,2.13,7.55,2.62,11.56,2.94a22.89,22.89,0,0,0,8.14-1,15.2,15.2,0,0,0,5.08-2.44,1.45,1.45,0,0,0,.64-1.37,1.74,1.74,0,0,0-.9-1.4,25.91,25.91,0,0,0-5.12-2.38A39.75,39.75,0,0,0,1130,597.47Zm7.85,215.25c.14.32.17.63.34.73s.54.59,1,.32.08-.63,0-.95c0-.06-.1-.11-.17-.19h-.6A3.3,3.3,0,0,0,1137.88,812.72Zm-28.66,112.41c0,1.11.14,1.21,1.41.85C1110.44,925.14,1109.63,925.58,1109.22,925.13ZM1182,704.76c-.67.15-.57.64-.53,1.06a.41.41,0,0,0,.51.4.53.53,0,0,0,.45-.5C1182.43,705.32,1182.15,705.07,1182,704.76ZM1069.48,670.5c-.8.2-.88.33-.8,1.39C1069.37,671.73,1069.74,671.36,1069.48,670.5Zm99.79,100.94c-.45,0-.69-.5-1.23-.2,0,.26-.17.56.13.84C1168.58,772.1,1169.07,772.27,1169.27,771.44ZM1126.74,593.1c.22.34.26.7.66.81a2,2,0,0,0,.81-.91C1127.63,592.33,1127.25,593.2,1126.74,593.1Zm-55.84,474.29c-.11.51-.19,1,.43,1.19a1.29,1.29,0,0,0,.66-.64C1071.77,1067.47,1071.24,1067.68,1070.9,1067.39Zm70.93-186.89c.06-.6.25-1.12-.29-1.45-.25-.16-.46,0-.59.26A2.16,2.16,0,0,0,1141.83,880.5Zm-37,150c-.06-.87-.06-.87-.88-.82C1103.8,1030.35,1104,1030.63,1104.8,1030.52Zm4.6-108.08c-.07.57-.19,1.06.62,1.29C1110.1,923.16,1110.22,922.67,1109.4,922.44Zm-22.21-186.62a.8.8,0,0,0-.66-1,.36.36,0,0,0-.48.38A1.41,1.41,0,0,0,1087.19,735.82Zm47.63,13.88c.22-.36-.09-.51-.16-.72a.35.35,0,0,0-.59-.13.36.36,0,0,0,0,.61C1134.33,749.56,1134.5,749.78,1134.82,749.7ZM1050.69,1056c-1,0-1,.07-.78.9A.89.89,0,0,0,1050.69,1056Zm122.08-355.57c.62.33.69-.17.84-.46s.21-.55-.3-.66A2,2,0,0,1,1172.77,700.43Zm-5.8,165-.37-1.1c-.47.37-.35.76-.3,1.12A.52.52,0,0,0,1167,865.41ZM1147.6,600.46a7.58,7.58,0,0,0-1.9,0C1146.32,601.18,1146.92,600.77,1147.6,600.46Zm-6.67-8.22a2.43,2.43,0,0,0,.09,1.16,1.23,1.23,0,0,0,.59-1.06C1141.42,592.17,1141.25,592.21,1140.93,592.24Zm102.55,245.43c.25-.23.57-.42.5-.85-.38-.14-.7-.15-.87.22S1243.18,837.55,1243.48,837.67Zm-72.15-23.09c-.35-.21-.68-.32-.66-.8,0-.12-.18-.12-.29-.11a.49.49,0,0,0-.15.44.48.48,0,0,0,.19.47c.11,0,.27,0,.43,0Zm13.61-91.22.51,0c.3,0,.45-.12.42-.43s-.33-.34-.54-.27S1184.9,722.93,1184.94,723.36Zm-65.56,228.46c.14.75.14.75,1,.53A1.2,1.2,0,0,0,1119.38,951.82ZM1140.12,731c.45.08.79.26,1-.15C1140.62,730.33,1140.62,730.33,1140.12,731Zm8,151c-.64-.19-.91,0-1,.54C1147.74,882.59,1147.74,882.59,1148.14,882.06Zm-27.71-131.5c.52-.28.73-.56.41-1.11C1120.39,749.7,1120.15,749.94,1120.43,750.56Zm-6.28,247.69c.33,0,.41-.17.4-.4s-.17-.33-.4-.32-.34.17-.32.4S1114,998.27,1114.15,998.25Zm63.7-238.71c-.49.53-.49.53.08,1.29A4.48,4.48,0,0,0,1177.85,759.54Zm-32-81.06a1.18,1.18,0,0,0-.11,1.14C1146.27,679.24,1146.16,678.86,1145.84,678.48Zm21.54,6.56c.58.06.85.64,1.32.18,0-.28-.17-.38-.33-.53Zm28.22,124.77a.74.74,0,0,0,.62.76.8.8,0,0,0,0-.89C1196,809.65,1195.76,809.6,1195.6,809.81ZM1086.56,664c0,1,0,1,.61,1.2C1087.11,664.76,1086.8,664.49,1086.56,664ZM1112,746c-.47.39-.42.78-.25,1.3C1112.17,746.91,1112.12,746.51,1112,746Zm-15.59-62.74-1.08-.33c-.16.41.08.52.28.67C1095.76,683.35,1096.1,683.47,1096.36,683.25Zm35.09,45.47c.12.46.27.76.75.57.09,0,.14-.18.23-.29C1132.12,728.92,1131.93,728.59,1131.45,728.72Zm-7.52,173.92c-.86,0-.86,0-.79.62A1,1,0,0,0,1123.93,902.64Zm37-305.07c-.38-.56-.74-.57-1.12,0A1.66,1.66,0,0,0,1161,597.57ZM1137.91,910.4c-.7,0-.7,0-.57.6C1137.67,911,1137.84,910.82,1137.91,910.4Zm51.9-95.91c-.3-.43-.6-.54-.94,0C1189.2,815,1189.5,814.93,1189.81,814.49Zm58.89,17.38c-.78,0-.78,0-.82.62A.82.82,0,0,0,1248.7,831.87Zm-141.39,98.88c-.61,0-.62,0-.68.37,0,.13.06.23.23.26C1107.18,931.38,1107.34,931.19,1107.31,930.75ZM1050.91,676c0-.42.09-.69-.06-1C1050.08,675.57,1050.08,675.57,1050.91,676Zm29.75,314.5a1.82,1.82,0,0,0-1.32-.1C1079.71,990.6,1080,991,1080.66,990.49Zm31.92-271.24c.86.45.86.45,1.19.06A1.74,1.74,0,0,0,1112.58,719.25Zm-56.68,340.09a1.21,1.21,0,0,0-.63,1.12C1055.8,1060.22,1056.24,1060.09,1055.9,1059.34Zm113.7-317.59c.33-.45.33-.45.08-1A.88.88,0,0,0,1169.6,741.75Zm29.61,84.49c.1-.31.21-.58-.19-.68-.19.1-.37.18-.38.4S1198.87,826.3,1199.21,826.24ZM1118.55,665.1c.28-.46.34-.76-.15-1.07A.93.93,0,0,0,1118.55,665.1ZM1129,908.68c-.58-.34-.58-.34-1-.07C1128.27,908.88,1128.57,908.81,1129,908.68ZM1120.27,601c-.46-.4-.79-.37-.9.13C1119.68,601.08,1120,601.28,1120.27,601Zm11.61,9.15c-.19.58-.28.88.25,1.13A1.1,1.1,0,0,0,1131.88,610.13Zm-53.27,58.64c.43-.16.75-.27.54-.8C1078.79,668.09,1078.52,668.2,1078.61,668.77Zm41.77,254.43a.93.93,0,0,0-1.1-.09C1119.59,923.46,1119.87,923.59,1120.38,923.2Zm24.71-194a.45.45,0,0,0-.33-.57c-.19.15-.42.27-.33.58A.5.5,0,0,0,1145.09,729.24Zm37.8-74.08c-.44-.12-.76-.15-.94.31C1182.34,655.61,1182.63,655.62,1182.89,655.16Zm-57.18,315.43c-.36-.5-.64-.54-.93,0A1.07,1.07,0,0,0,1125.71,970.59Zm-69.9-286.17c.44-.42.43-.71,0-1A1.2,1.2,0,0,0,1055.81,684.42Zm64,303.34c-.22-.43-.42-.73-1-.62C1119,987.57,1119.21,987.87,1119.77,987.76Zm28.12-133.51a1.06,1.06,0,0,0-1,0C1147.19,854.7,1147.47,854.71,1147.89,854.25Zm-8.42-109c.24-.1.19-.32.16-.5a.21.21,0,0,0-.27-.16c-.25.08-.2.31-.16.49A.22.22,0,0,0,1139.47,745.24Zm50-103.55c-.14.65.08.79.61.63C1190,642,1189.8,641.82,1189.43,641.69ZM1187.5,708c-.15,0-.33,0-.33.24s.17.23.33.23.33,0,.33-.23S1187.65,708,1187.5,708Zm-111,312.69c.38-.38.81-.53.64-1.05A1.16,1.16,0,0,0,1076.54,1020.7Zm-23.76-340.19c.3,0,.45.59.9.23C1053.48,680.22,1053.1,680.46,1052.78,680.51Zm90.32-4.82c0-.21-.18-.23-.33-.23s-.33,0-.33.23.17.24.33.24S1143.09,675.91,1143.1,675.69ZM1119.28,985.3c.22,0,.24-.18.24-.33s0-.34-.24-.34-.23.18-.23.34S1119.06,985.29,1119.28,985.3ZM1125.2,922a.22.22,0,0,0-.16-.28c-.18,0-.4-.08-.5.17a.2.2,0,0,0,.16.26C1124.89,922.22,1125.1,922.27,1125.2,922Zm8.42-5.53c-.36.45.19.6.23.89C1133.89,917.08,1134.14,916.7,1133.62,916.5Zm-50,149.17c-.08.23-.16.46.07.63,0,0,.27,0,.29-.09C1084,1065.92,1083.82,1065.79,1083.58,1065.67ZM1125.2,984c-.29-.09-.53-.23-.65.11a.21.21,0,0,0,.07.2C1125,984.43,1125.07,984.22,1125.2,984Zm31.31-243.74c-.18-.24-.29-.49-.59-.31a.21.21,0,0,0-.07.2C1156,740.42,1156.21,740.29,1156.51,740.21Zm-59.74,5.49c.22-.12.43-.24.34-.53,0-.06-.25-.13-.29-.09C1096.6,745.26,1096.64,745.48,1096.77,745.7Zm55.2,2.75c.15-.23.18-.46,0-.64,0,0-.28,0-.29.11A.39.39,0,0,0,1152,748.45Zm-30-27.18a.37.37,0,0,0-.33-.3.33.33,0,0,0-.32.3.32.32,0,0,0,.38.34A.35.35,0,0,0,1122,721.27Zm2.18-131c-.32.14-.46.31-.31.58a.21.21,0,0,0,.2.07C1124.38,590.78,1124.24,590.54,1124.15,590.25Zm-9.48,359c.24.39,0,.65.35.78a.23.23,0,0,0,.2-.08C1115.38,949.66,1115.23,949.49,1114.67,949.23Zm-6.15,39.46c.33.17.41.47.71.29a.22.22,0,0,0,.07-.2C1109.18,988.45,1108.94,988.59,1108.52,988.69Zm9.9-29.51c.14-.22.18-.45,0-.63,0,0-.27,0-.29.11A.38.38,0,0,0,1118.42,959.18Zm-76-284.4a.35.35,0,0,0-.34-.28.32.32,0,1,0,.09.63A.32.32,0,0,0,1042.44,674.78ZM1141,926.63a.44.44,0,0,0,0-.64.38.38,0,0,0-.3.11A.39.39,0,0,0,1141,926.63Zm22.85-335.12c-.14.22-.18.45,0,.63,0,0,.27,0,.29-.1A.39.39,0,0,0,1163.88,591.51ZM1127.59,909c.24.39,0,.65.35.78a.22.22,0,0,0,.2-.07C1128.3,909.4,1128.16,909.23,1127.59,909Zm-79.94-237.43c-.24-.06-.47-.15-.64.09,0,0,0,.27.1.29C1047.39,672,1047.53,671.8,1047.65,671.54ZM1163,614.17c-.29-.09-.53-.23-.66.1a.19.19,0,0,0,.07.2C1162.67,614.63,1162.83,614.49,1163,614.17Zm-79.09,121.24c-.22.11-.42.24-.34.52,0,.06.24.14.29.1C1084.06,735.86,1084,735.63,1083.89,735.41Zm97.4,75a.41.41,0,0,0-.33.54c0,.06.25.14.29.1C1181.48,810.9,1181.44,810.67,1181.29,810.44Zm54.65,26.11c-.13.22-.17.45,0,.62a.33.33,0,0,0,.3-.09C1236.37,836.8,1236.15,836.67,1235.94,836.55Zm-56.7-173.16c0,.2-.2.46.14.58a.24.24,0,0,0,.2-.06C1179.76,663.61,1179.51,663.5,1179.24,663.39ZM1069,685.58c.14-.23.18-.45,0-.64,0,0-.28,0-.29.11A.38.38,0,0,0,1069,685.58Zm102.64,129.35c-.21.11-.42.24-.34.53,0,.06.25.14.29.1C1171.78,815.38,1171.74,815.16,1171.61,814.93Zm-2.77-145.12c-.13.22-.17.45.05.62,0,0,.28,0,.29-.1C1169.26,670.05,1169.06,669.91,1168.84,669.81ZM1082,1018.74c-.43-.26-.43-.26-.66.08A.63.63,0,0,0,1082,1018.74Zm77.65-278.88a.78.78,0,0,0,0,.86A.78.78,0,0,0,1159.66,739.86Zm-40.76,275.26c.15,0,.32-.12.3-.31s-.21-.19-.36-.2a.19.19,0,0,0-.23.19C1118.6,1015,1118.76,1015.06,1118.9,1015.12Zm-28.73-271.55a.19.19,0,0,0-.18-.24c-.14,0-.21,0-.24.18s.06.21.18.24S1090.13,743.68,1090.17,743.57ZM1079,1013.7c0-.15-.06-.21-.18-.24s-.22,0-.24.18,0,.21.18.24S1079,1013.82,1079,1013.7Zm-8.49-11.17c0,.07,0,0-.19,0s-.23.08-.19.24.1.21.25.18S1070.61,1002.89,1070.5,1002.53Zm30.6-312.7c0-.12-.09-.22-.23-.18s-.22.08-.19.23.09.22.24.19S1101.13,690,1101.1,689.83Zm30.25,195.62c.38-.32.42-.53,0-.71C1131.19,884.93,1131.18,885.12,1131.35,885.45ZM1182.6,730c-.22-.11-.44-.21-.66.09C1182.21,730.38,1182.42,730.43,1182.6,730Zm-101.12-60.52c0-.12-.09-.22-.24-.19s-.22.09-.19.24.09.21.24.18S1081.5,669.6,1081.48,669.46ZM1150.3,782.2a.45.45,0,0,0-.66,0C1149.87,782.61,1150.07,782.61,1150.3,782.2Zm64.07,57.29c-.35.15-.5.34-.28.67C1214.36,840.07,1214.5,839.91,1214.37,839.49ZM1179.8,662.07a.79.79,0,0,0,0,.86A.8.8,0,0,0,1179.8,662.07Zm3.38,156.8a.19.19,0,0,0-.24.18c0,.15,0,.22.18.24s.21,0,.24-.18S1183.3,818.9,1183.18,818.87ZM1168.6,699c-.12.33-.14.52,0,.73C1169,699.58,1169,699.38,1168.6,699ZM1124,667.22c0-.13-.09-.22-.23-.19s-.22.09-.19.24.09.21.24.18S1124,667.36,1124,667.22Zm-52.52.36a.75.75,0,0,0,0,.85A.79.79,0,0,0,1071.44,667.58Zm56.67,0a.75.75,0,0,0,0,.85A.79.79,0,0,0,1128.11,667.58ZM1179.29,701a.77.77,0,0,0,0-.86A.81.81,0,0,0,1179.29,701Zm5.41,112.31a.69.69,0,0,0,.8-.07C1185.24,813.17,1185,813,1184.7,813.27Zm-51.4,22.45c-.26.44-.26.44.07.66A.59.59,0,0,0,1133.3,835.72Zm109.33-14.92c.36-.15.51-.34.29-.67C1242.64,820.22,1242.5,820.38,1242.63,820.8Zm-132.71,201c-.36.2-.59-.07-.75.26C1109.5,1022.28,1109.5,1022.28,1109.92,1021.78Zm-24.48-335c.12,0,.23-.12.22-.25s-.15-.17-.26-.13a.23.23,0,0,0-.13.28A.12.12,0,0,0,1085.44,686.8Zm-18.13.83c0-.15-.06-.22-.2-.22a.34.34,0,0,0-.2.08.31.31,0,0,0,.29.31S1067.28,687.69,1067.31,687.63Zm102,2.91a.43.43,0,0,0,0-.6C1169.2,690.1,1169.2,690.28,1169.35,690.54Zm-7.6,6.05-.09-.22c-.09.07-.22.11-.28.19s0,.21.14.22S1161.73,696.72,1161.75,696.59Zm6.23,2.9a2,2,0,0,0-.21.29.18.18,0,0,0,.19.23c.11,0,.26,0,.19-.18S1168,699.62,1168,699.49Zm-60.9,24.89c0-.13-.09-.23-.24-.2s-.23.1-.13.23.19.12.28.18Zm25.11.74.21-.09a1.15,1.15,0,0,0-.19-.28c-.14-.1-.2,0-.22.14S1132.05,725.1,1132.19,725.12Zm1.54,2.91c.08.09.15.18.23.26s.15.05.18-.06,0-.32-.2-.31C1133.88,727.92,1133.82,728,1133.73,728Zm48.25,6.13a.27.27,0,0,0-.24.24c0,.16.1.19.22.16a.21.21,0,0,0,.16-.27S1182,734.2,1182,734.16Zm-14.52,3.89c0-.13-.08-.23-.23-.2s-.23.1-.13.23a1,1,0,0,0,.28.18A1.8,1.8,0,0,0,1167.46,738.05Zm-4,1.08a.21.21,0,0,0-.15-.28c-.12,0-.25,0-.23.15a.23.23,0,0,0,.23.23C1163.38,739.24,1163.44,739.16,1163.48,739.13Zm1,5a.29.29,0,0,0-.23-.25c-.16,0-.19.11-.16.23a.2.2,0,0,0,.26.16S1164.4,744.16,1164.44,744.11Zm5.85,7.13a.25.25,0,0,0-.27.18c0,.07,0,.2,0,.22a.25.25,0,0,0,.33-.23S1170.33,751.29,1170.29,751.24Zm4.57,7.58c-.19-.11-.37-.24-.52,0A.39.39,0,0,0,1174.86,758.82Zm1.58,42.44c-.27,0-.46-.19-.66.09A.54.54,0,0,0,1176.44,801.26Zm29.14,11.24a.44.44,0,0,0,.6,0C1206,812.34,1205.84,812.34,1205.58,812.5Zm-13.35,6.66a.43.43,0,0,0,0,.6A.44.44,0,0,0,1192.23,819.16Zm-65.33,12a.3.3,0,0,0,.25-.23.11.11,0,0,0-.09-.17c-.18,0-.32,0-.29.25C1126.78,831.1,1126.86,831.15,1126.9,831.2Zm83,.14a.4.4,0,0,0,0,.59A.44.44,0,0,0,1209.87,831.34Zm6.88,3.18a.22.22,0,0,0-.27.16c0,.12,0,.24.16.23a.25.25,0,0,0,.23-.24S1216.79,834.57,1216.75,834.52ZM1147.92,917a1.88,1.88,0,0,0-.29-.2.18.18,0,0,0-.23.19c0,.11,0,.26.19.19S1147.79,917.05,1147.92,917Zm1.92,1.7c-.13.17-.19.22-.21.29s.06.22.19.23.26,0,.19-.19A3.48,3.48,0,0,0,1149.84,918.68Zm-4.53,1.67a.44.44,0,0,0-.6,0C1144.88,920.51,1145.05,920.51,1145.31,920.35Zm3.42,2.54a.45.45,0,0,0,0-.63A.54.54,0,0,0,1148.73,922.89Zm-37.42,3,.21-.09a.82.82,0,0,0-.19-.28c-.14-.1-.2,0-.22.14S1111.18,925.9,1111.31,925.92Zm-.79,12.45c0-.27.18-.46-.1-.66A.53.53,0,0,0,1110.52,938.37Zm3,10.37s-.09-.12-.13-.11a.26.26,0,0,0-.24.32s.13.08.2.07S1113.55,948.91,1113.53,948.74Zm8.58,10c.17-.1.37.24.53-.12C1122.44,958.49,1122.26,958.46,1122.11,958.69Zm5.34,6.7s-.09-.11-.13-.11a.27.27,0,0,0-.25.32s.14.08.21.07S1127.47,965.56,1127.45,965.39Zm-10.73,22c0-.12-.12-.23-.25-.22s-.17.15-.13.26.16.15.28.13A.12.12,0,0,0,1116.72,987.37Zm-6.85,8.36c.08-.06.17-.09.18-.14a.22.22,0,0,0-.14-.28c-.12,0-.26,0-.24.15S1109.8,995.63,1109.87,995.73Zm-35.45,7.07a.46.46,0,0,0,0,.63A.56.56,0,0,0,1074.42,1002.8Zm.84,9.81s-.09-.12-.13-.11a.27.27,0,0,0-.25.32s.14.07.21.06S1075.28,1012.77,1075.26,1012.61Zm37.07,3.57a.19.19,0,0,0-.22.21.34.34,0,0,0,.08.2.31.31,0,0,0,.31-.3S1112.39,1016.22,1112.33,1016.18Zm4.83.27c.12-.15.1-.21,0-.25s-.25,0-.31.09,0,.27.1.29S1117.13,1016.47,1117.16,1016.45Zm-.4,2.5a.21.21,0,0,0-.15-.28c-.12,0-.25,0-.23.16a.25.25,0,0,0,.23.23C1116.66,1019.06,1116.72,1019,1116.76,1019Zm-5.46,29.3-.07-.21a.78.78,0,0,0-.29.14c-.09.11,0,.22.11.25S1111.26,1048.38,1111.3,1048.25Zm-65.71,7.49a.46.46,0,0,0,0,.63A.56.56,0,0,0,1045.59,1055.74Zm-3.16.46s-.12.09-.11.13a.25.25,0,0,0,.32.24s.07-.13.06-.2S1042.59,1056.18,1042.43,1056.2ZM1036,1061c-.27,0-.46-.18-.66.1A.53.53,0,0,0,1036,1061Zm32,6a.22.22,0,0,0-.16-.27c-.12,0-.24,0-.23.16a.25.25,0,0,0,.24.23S1068,1066.94,1068.06,1066.9Zm-26,.8a.34.34,0,0,0,.56,0A.43.43,0,0,0,1042.09,1067.7Zm77.31-473.93c-.11.19-.24.37,0,.52A.39.39,0,0,0,1119.4,593.77Zm26.82,4.74a.32.32,0,0,0,.55,0A.41.41,0,0,0,1146.22,598.51Zm-32.09,1a.43.43,0,0,0,.59,0C1114.56,599.37,1114.39,599.37,1114.13,599.52Zm40.07,8.14a.44.44,0,0,0,0,.6C1154.36,608.1,1154.35,607.93,1154.2,607.66Zm31.37,31.58a.32.32,0,0,0-.23-.25.12.12,0,0,0-.17.1c0,.18,0,.31.25.29C1185.48,639.37,1185.52,639.29,1185.57,639.24Zm7,.94a.19.19,0,0,0-.19-.24c-.07,0-.2,0-.2.08a.29.29,0,0,0,.27.32S1192.52,640.23,1192.56,640.18Zm-7.12,8.52c.1.17-.24.37.13.53C1185.64,649,1185.67,648.85,1185.44,648.7ZM1144,665.18a.42.42,0,0,0,0-.6A.44.44,0,0,0,1144,665.18Zm-85,3.19c.19.1.37.24.52,0A.38.38,0,0,0,1059,668.37Zm111.85,3.5a.33.33,0,0,0,0-.55A.41.41,0,0,0,1170.83,671.87Zm-5.85,6.32a.19.19,0,0,0-.2-.23.38.38,0,0,0-.21.08.33.33,0,0,0,.3.32S1164.94,678.25,1165,678.19ZM1144.36,885.4l-.13-.12c0,.07-.07.13-.06.2s.07.08.11.12Zm-32.82,110.4-.12.13c.07,0,.14.07.2.06s.08-.08.12-.12Zm-19.87,1.51-.07-.2s-.11.08-.12.12a.7.7,0,0,0,.06.19Zm5.83-.2s.08.12.12.12.13,0,.2-.06-.08-.11-.12-.12A.89.89,0,0,0,1097.5,997.11ZM1138.84,726c-.09,0-.15-.08-.21-.07s-.08.07-.12.11a.49.49,0,0,0,.19.07S1138.79,726,1138.84,726Zm-51.47-2.66a.9.9,0,0,0,.07-.22s-.08-.08-.12-.12-.07.13-.06.2S1087.32,723.28,1087.37,723.34ZM1070,1000.81a.22.22,0,0,0,0,.37A.22.22,0,0,0,1070,1000.81ZM1088.84,722a.23.23,0,0,0,0,.37A.22.22,0,0,0,1088.84,722Zm-18,280.87a.24.24,0,0,0,.39,0C1071.13,1002.72,1071,1002.73,1070.86,1002.85Zm52.37-105-.12-.12a.49.49,0,0,0-.07.19s.08.08.12.12Zm65.26-177.22a.23.23,0,0,0,0-.37A.22.22,0,0,0,1188.49,720.61Zm-2.17-4.78a.23.23,0,0,0-.37,0A.22.22,0,0,0,1186.32,715.83Zm-59.62,186-.12.13c.07,0,.13.07.2.06s.08-.07.12-.11Zm2.09-86.38a.23.23,0,0,0,.37,0A.22.22,0,0,0,1128.79,815.48Zm-8.34,202.27c-.09,0-.15-.08-.21-.07s-.08.07-.12.12a.7.7,0,0,0,.19.06S1120.4,1017.79,1120.45,1017.75Zm42.53-312-.11.12a.49.49,0,0,0,.19.07s.08-.08.12-.12Zm38.28,105.55-.12-.11a.73.73,0,0,0-.07.19s.08.08.12.12A1.59,1.59,0,0,0,1201.26,811.34Zm-121.68,207.91a.22.22,0,0,0,.37,0A.23.23,0,0,0,1079.58,1019.25Zm88.35-325.53a.22.22,0,0,0-.37,0A.23.23,0,0,0,1167.93,693.72Zm-83,326.56s-.08-.11-.12-.12a.6.6,0,0,0-.2.07s.08.11.12.11A.41.41,0,0,0,1084.9,1020.28Zm-7.78-332.06s.08.11.12.11a.41.41,0,0,0,.2-.06s-.08-.11-.12-.12A.6.6,0,0,0,1077.12,688.22Zm31.7,334.44-.08-.2a.81.81,0,0,0-.14.12c0,.09,0,.17.07.19S1108.77,1022.7,1108.82,1022.66Zm-37-334.5-.07-.19s-.12.07-.12.11a.89.89,0,0,0,.06.2ZM1124,686.9l-.12.13c.06,0,.13.07.19.06s.08-.07.12-.12Zm-10.47,350.26a.22.22,0,0,0-.37,0A.22.22,0,0,0,1113.5,1037.16Zm-1.2.83-.13-.12c0,.06-.07.13-.06.19s.07.08.12.12A1.46,1.46,0,0,1,1112.3,1038Zm-54.92,2.48-.13-.12c0,.07-.07.13-.06.2s.07.08.12.12A1.59,1.59,0,0,1,1057.38,1040.47Zm-7.47,2.3-.12.13a.76.76,0,0,0,.2.06s.08-.08.12-.12Zm3.11,3s.07.12.12.12.13,0,.19-.06-.07-.12-.11-.12A.76.76,0,0,0,1053,1045.82Zm107.24-255.35-.12-.12a.53.53,0,0,0-.07.2s.08.07.12.11Zm-49.75,258.34a.85.85,0,0,0-.21-.07s-.08.08-.12.12.13.07.19.06S1110.46,1048.86,1110.51,1048.81Zm4.43,1.7a.22.22,0,0,0,0,.37A.22.22,0,0,0,1114.94,1050.51Zm-87.69,1.33s-.08-.11-.12-.12a.53.53,0,0,0-.2.07s.07.11.11.12A.65.65,0,0,0,1027.25,1051.84Zm114.23-266.21s.08.12.13.12.13,0,.19-.06-.07-.12-.11-.12S1141.56,785.61,1141.48,785.63Zm-34.23-99.32c0-.09.08-.16.07-.22s-.08-.08-.12-.12-.07.13-.06.2S1107.2,686.26,1107.25,686.31Zm52.22,95.11a.66.66,0,0,0-.22-.08s-.08.08-.12.12a.53.53,0,0,0,.2.07S1159.42,781.46,1159.47,781.42ZM1065.69,686s.08.11.12.12a.89.89,0,0,0,.2-.06s-.08-.12-.12-.12A.41.41,0,0,0,1065.69,686Zm-32.18,373.19-.12.13c.07,0,.13.07.2.06s.07-.07.11-.12ZM1161.68,685s-.12.08-.12.13a.7.7,0,0,0,.06.19c.05,0,.12-.07.12-.11A.45.45,0,0,0,1161.68,685Zm-56.35,374.45-.12.13c.07,0,.13.07.2.06s.07-.08.11-.12Zm98.56-225.74a.22.22,0,0,0,0-.37A.22.22,0,0,0,1203.89,833.68ZM1049.12,1061s-.08-.12-.13-.12-.13,0-.19.06.07.12.11.12S1049,1061.06,1049.12,1061Zm-10.14.37-.12.12a.49.49,0,0,0,.19.07s.08-.08.12-.12Zm41.65,2.89a.22.22,0,0,0,0-.37A.22.22,0,0,0,1080.63,1064.3ZM1121,683.94l-.07-.2s-.12.07-.12.11a.39.39,0,0,0,.06.2Zm43.92,147.23s-.08-.12-.12-.12-.13,0-.19.06.07.11.11.12A.89.89,0,0,0,1164.92,831.17ZM1064.73,683.83a.22.22,0,0,0,0-.37A.22.22,0,0,0,1064.73,683.83Zm86.29,236a.59.59,0,0,0-.22-.08s-.08.08-.12.12a.6.6,0,0,0,.2.07S1151,919.88,1151,919.84ZM1090.18,1070l-.12-.11a.49.49,0,0,0-.07.19s.08.08.12.12S1090.16,1070.11,1090.18,1070Zm-45.79,3.17s-.07-.11-.12-.11a.35.35,0,0,0-.19.06s.07.11.11.12A.6.6,0,0,0,1044.39,1073.21Zm115.33-395.15a.22.22,0,0,0-.37,0A.22.22,0,0,0,1159.72,678.06ZM1057,675.88a.22.22,0,0,0,0-.37A.22.22,0,0,0,1057,675.88Zm89.66-1.06a.22.22,0,0,0,.37,0A.22.22,0,0,0,1146.68,674.82Zm-20.85,150.32c0,.05.08.12.12.12s.13,0,.2-.06-.08-.11-.12-.12A.89.89,0,0,0,1125.83,825.14ZM1159,673.36s-.08-.12-.12-.12a.76.76,0,0,0-.2.06c0,.05.07.12.11.12A.42.42,0,0,0,1159,673.36Zm9.21-2.78c-.09,0-.16-.08-.22-.07s-.08.07-.12.12a.76.76,0,0,0,.2.06S1168.12,670.62,1168.17,670.58ZM1056,669.66c.14-.11.13-.24,0-.37A.22.22,0,0,0,1056,669.66Zm55.44-.75c0-.09.08-.15.08-.21s-.08-.08-.12-.12a.49.49,0,0,0-.07.19C1111.36,668.82,1111.43,668.86,1111.47,668.91Zm-41.8-2.07s.07.12.12.12.13,0,.19-.06-.07-.12-.11-.12A.76.76,0,0,0,1069.67,666.84Zm51.53-4.93a.21.21,0,0,0-.36,0A.21.21,0,0,0,1121.2,661.91Zm71.27-12a.23.23,0,0,0,0,.37A.22.22,0,0,0,1192.47,649.91Zm-7.12-8.24-.12.13c.07,0,.13.07.2.06s.07-.07.11-.12Zm1.89-5.8a.22.22,0,0,0,0-.37A.23.23,0,0,0,1187.24,635.87Zm3.27-3.83s-.12.08-.12.12,0,.13.06.2.12-.07.12-.12S1190.53,632.11,1190.51,632Zm-10-6.36a.22.22,0,0,0,0-.37A.23.23,0,0,0,1180.53,625.68Zm-7.39-4.06a.9.9,0,0,0-.22-.07s-.08.08-.12.12.13.07.2.06S1173.09,621.67,1173.14,621.62Zm-8.81-3.21a.23.23,0,0,0,.37,0A.22.22,0,0,0,1164.33,618.41Zm-31.42-2.83-.11.12a.49.49,0,0,0,.19.07s.08-.08.12-.12Zm-3.72-.75-.12.13c.06,0,.13.07.19.06s.08-.07.12-.11Zm117,209.6a.22.22,0,0,0-.37,0A.22.22,0,0,0,1246.21,824.43ZM1131.64,596.77c-.09,0-.16-.08-.22-.07s-.08.08-.12.12.13.07.2.06S1131.58,596.82,1131.64,596.77Zm8.74-2.63-.13-.11c0,.06-.07.13-.06.19s.08.08.12.12S1140.36,594.21,1140.38,594.14Zm23.36,182.91-.13-.12c0,.07-.07.13-.06.2s.08.08.12.11Zm5.11,0a.22.22,0,0,0,0-.37A.23.23,0,0,0,1168.85,777ZM1188,821.5c.14-.11.13-.24,0-.37A.22.22,0,0,0,1188,821.5Zm-12.46-62.21s.08.12.12.12a.76.76,0,0,0,.2-.06c0-.05-.08-.12-.12-.12A.41.41,0,0,0,1175.53,759.29Zm-34.44-9.41a.22.22,0,0,0-.37,0A.22.22,0,0,0,1141.09,749.88ZM1173.87,818s-.08-.11-.12-.12a.53.53,0,0,0-.2.07s.07.11.12.12A.6.6,0,0,0,1173.87,818Zm-64.12,122.77s-.08-.12-.12-.12-.13,0-.19.06.07.12.11.12S1109.68,940.78,1109.75,940.76Zm2.72.52a.79.79,0,0,0,.07-.22s-.08-.08-.12-.12-.07.14-.06.2S1112.42,941.23,1112.47,941.28Zm127.4-123.82a.22.22,0,0,0,.37,0C1240.13,817.33,1240,817.34,1239.87,817.46ZM1117.27,750l-.13-.12c0,.07-.07.14-.06.2s.07.08.12.12A1.59,1.59,0,0,1,1117.27,750Zm23.11-.74-.13-.12c0,.06-.07.13-.06.19s.08.08.12.12Zm-19.16,204.3-.11.14a.5.5,0,0,0,.2.08s.07-.08.11-.13Zm39-205.3-.12-.12a.6.6,0,0,0-.07.2s.08.08.12.12S1160.24,748.29,1160.26,748.22Zm-3.37,132.46c.06-.1.13-.16.13-.22s0-.28-.19-.11S1156.86,880.55,1156.89,880.68Zm-1.24-64.48s.08.11.12.12a.89.89,0,0,0,.2-.06s-.08-.12-.12-.12A.41.41,0,0,0,1155.65,816.2Zm-25.85-68.09s.08.11.13.12a.49.49,0,0,0,.19-.07s-.07-.11-.11-.12A.65.65,0,0,0,1129.8,748.11Zm2,227.22a.23.23,0,0,0,0-.37A.22.22,0,0,0,1131.83,975.33Zm-3.23,1a.23.23,0,0,0,0-.37A.22.22,0,0,0,1128.6,976.33Zm-3,7.45c0-.09.08-.16.07-.22s-.08-.08-.12-.12-.07.13-.06.2S1125.59,983.72,1125.64,983.78ZM1155,738a1,1,0,0,0,.08-.22s-.08-.08-.12-.12a.53.53,0,0,0-.07.2S1154.92,738,1155,738Zm3.56-1.21-.12-.12a.53.53,0,0,0-.07.2s.08.08.12.12S1158.5,736.86,1158.52,736.79Zm27.83,78.86-.07-.2s-.11.07-.11.11a.36.36,0,0,0,.06.2Zm-7.7-83.83-.12-.12a.53.53,0,0,0-.07.2s.08.08.12.12S1178.63,731.89,1178.65,731.82Zm-39-1.93-.11.13a.73.73,0,0,0,.19.07s.08-.08.12-.12ZM1086.91,728a.22.22,0,0,0-.37,0A.22.22,0,0,0,1086.91,728Zm15,266.39a.22.22,0,0,0,.37,0A.23.23,0,0,0,1102,994.4Zm-58.3,61.92s-.08-.12-.12-.12-.13,0-.2.06.07.12.12.12A.89.89,0,0,0,1043.65,1056.32Z"/><path class="cls-3" d="M998.28,1247.79l-.06-.84c-.37.06-.11.48-.47.63a14.15,14.15,0,0,1-2.9-.57c-2.67-.56-5.33-1.22-8-1.9s-5.12-1.4-7.67-2.14-5.3-1.68-7.91-2.63c-1.95-.72-3.88-1.53-5.79-2.37-2.83-1.23-5.57-2.64-8.29-4.06q-5.46-2.84-10.72-6-4.35-2.65-8.54-5.56c-2.3-1.58-4.54-3.23-6.7-5-1.85-1.51-3.68-3-5.44-4.64-1-.92-2.05-1.8-3-2.81a44.07,44.07,0,0,1-7.22-9.61,21.23,21.23,0,0,1-1.33-3.42,4.73,4.73,0,0,1,0-2.45,2.89,2.89,0,0,1,2.46-2.12c1.92-.47,3.81,0,5.72.16,1.47.15,2.92.43,4.38.61,1.7.21,3.37.6,5,1,2.47.54,5,1,7.39,1.73s4.81,1.3,7.18,2c4,1.27,8,2.73,11.89,4.25,2.67,1,5.26,2.29,7.89,3.41,5.45,2.32,10.68,5.09,16,7.75,2.7,1.36,5.28,3,7.94,4.44,3.27,1.8,6.42,3.79,9.55,5.8,4.3,2.78,8.46,5.78,12.5,8.92,1.78,1.39,3.53,2.82,5.25,4.27s3.35,2.92,5,4.44c.65.61,1.37,1.18,2,1.79a5,5,0,0,0,2.48,1.05c.92.18,1.89.14,2.8.33a42.85,42.85,0,0,0,4.66.39,26.2,26.2,0,0,0,5.8-.08,33.61,33.61,0,0,0,5.28-1.07,19.14,19.14,0,0,0,7.12-4,22.56,22.56,0,0,0,6-9.21,20.94,20.94,0,0,0,1.4-5.59,20.37,20.37,0,0,0-.12-4.93,28.54,28.54,0,0,0-1.45-5.7,30.8,30.8,0,0,0-4.37-7.82c-1.38-1.85-2.91-3.56-4.44-5.28s-3.16-3.27-4.73-4.91a12.55,12.55,0,0,0-1-.88,11.3,11.3,0,0,1-3.19-4,2.53,2.53,0,0,1-.21-1.2,3.85,3.85,0,0,0-1.37-3.19,21.69,21.69,0,0,1-6.84-12,23.43,23.43,0,0,1-.19-6.42,12.29,12.29,0,0,1,1.2-4.35,29.39,29.39,0,0,1,4.09-6.84,18.26,18.26,0,0,1,3.75-3.59,3.73,3.73,0,0,1,1.42-.71,7.94,7.94,0,0,0,3.24-1.69,14.44,14.44,0,0,1,6.28-2.61,35.2,35.2,0,0,1,5.8-.2,11.83,11.83,0,0,1,2.42.38,2.34,2.34,0,0,0,2.86-1.36,17,17,0,0,0,1.21-4.24c.21-1.31.07-2.64.26-3.93a51.06,51.06,0,0,0,.21-6.18,2.8,2.8,0,0,1,2.6-3,3.84,3.84,0,0,1,3.68,1.28,4.24,4.24,0,0,1,.81,2.16,19.07,19.07,0,0,1,.3,3.93,50,50,0,0,1-.7,6.09,39.55,39.55,0,0,1-1.26,5.48c-.14.4-.3.76-.47,1.14-1,2-.32,2.81,1,3.88a27.86,27.86,0,0,1,7.3,8.89,15.32,15.32,0,0,1,1.66,5.61,19.57,19.57,0,0,1,.19,2.95,20.84,20.84,0,0,1-1.54,6.78,37.92,37.92,0,0,1-5.69,9,32.24,32.24,0,0,1-2.38,2.82,15.93,15.93,0,0,1-8,4.56,13.28,13.28,0,0,1-2.66.42,4.21,4.21,0,0,0-.62,0c-1.33.24-1.69,1.15-.88,2.25a61.07,61.07,0,0,1,6.48,10.71,44.5,44.5,0,0,1,3.43,10.83,41.17,41.17,0,0,1,.39,9,18.87,18.87,0,0,1-1.62,6.25,43.19,43.19,0,0,1-5.37,9.5,19,19,0,0,1-5.6,4.93,27.92,27.92,0,0,1-9.65,3.42c-1.25.22-2.5.36-3.76.51a82.26,82.26,0,0,1-11.64.15c-2.19-.06-4.41-.34-6.6-.62-1.66-.22-3.35-.35-5-.6-2.42-.36-4.85-.69-7.26-1.15-2.24-.44-4.54-.63-6.78-1.08-2-.4-4-.61-5.88-1.17A4.81,4.81,0,0,0,998.28,1247.79Zm9.85-6a4.17,4.17,0,0,0,.61,0,.88.88,0,0,0,.81-1.43,2.75,2.75,0,0,0-.71-.69c-1.84-1.36-3.68-2.74-5.56-4.05-2.15-1.51-4.35-2.92-6.56-4.34-4.26-2.73-8.68-5.18-13.16-7.51-5.65-2.93-11.36-5.75-17.17-8.35-2.25-1-4.48-2.05-6.75-3-3.33-1.38-6.67-2.75-10-4s-7-2.41-10.64-3.35c-2.4-.64-4.83-1.21-7.27-1.65a7,7,0,0,0-2.45-.28c-1.07.18-1.41.93-.76,1.76a8.77,8.77,0,0,0,1.44,1.54c1.27,1,2.46,2,3.7,3,2,1.58,4,3,6.1,4.36,2.56,1.7,5.18,3.3,7.82,4.87,4,2.4,8.15,4.62,12.28,6.82q5.06,2.7,10.29,5c2.25,1,4.51,2,6.8,2.9,3.43,1.33,7,2.38,10.5,3.4,2.23.64,4.47,1.27,6.73,1.85,2.72.69,5.46,1.35,8.21,2A56.18,56.18,0,0,0,1008.13,1241.75Zm48.86-54.23c.29,0,.58,0,.87,0s.4-.09.6-.13a15.06,15.06,0,0,0,7.81-4.21,22.11,22.11,0,0,0,5.51-9,9.33,9.33,0,0,0,0-6.4,17.91,17.91,0,0,0-5.78-7.56,1.54,1.54,0,0,0-2.49.25c-.18.23-.37.44-.55.67-1.4,1.81-2.69,3.72-4.21,5.43a25.89,25.89,0,0,1-7.44,6.22,7.29,7.29,0,0,1-5.34.75,10.44,10.44,0,0,1-2.46-1.08,1.12,1.12,0,0,0-1.82.7,3.85,3.85,0,0,0-.08.49,7.85,7.85,0,0,0,2,6.52,22.48,22.48,0,0,0,8.7,6.34A15.08,15.08,0,0,0,1057,1187.52Zm-11.27-24.23v.38a2.36,2.36,0,0,0,1.35,2.21,2.23,2.23,0,0,0,2.34-.39,15.34,15.34,0,0,0,1.72-1.41,53.34,53.34,0,0,0,5.19-6.24c.41-.56.85-1.2.47-1.94s-1.31-.73-2-.68a9.94,9.94,0,0,0-6.87,3.23A7.56,7.56,0,0,0,1045.72,1163.29Zm13.64-5.88c-.76-.44-1.15-.45-1.37,0s0,.74.46.92C1058.88,1158.13,1059.05,1157.71,1059.36,1157.41Zm-5.3,85.86c.46-.24.38-.73.66-1.12-.56-.14-1-.22-1.24.31S1053.72,1243.09,1054.06,1243.27Zm-10.4-61.8a1.79,1.79,0,0,0-1.06,0c-.28.14-.47.38-.25.7a.4.4,0,0,0,.64.08A2.24,2.24,0,0,0,1043.66,1181.47Zm18.08,56.1c-.41.12-.68.29-.54.7a.38.38,0,0,0,.59.21A1,1,0,0,0,1061.74,1237.57Zm-18.58-47.09c-.45,0-.53-.67-1.19-.54C1042.17,1190.62,1042.58,1190.69,1043.16,1190.48Zm-111.4,4c0,.66,0,.66.6.88C932.48,1195,932.26,1194.73,931.76,1194.53Zm120,6.13c.28.78.3.78.9.23C1052.42,1200.47,1052.1,1200.5,1051.74,1200.66Zm-68.64,19.81c-.4,0-.74-.15-.91.26-.07.16.11.31.25.36C982.86,1221.25,983,1221,983.1,1220.47Zm28.65,20.17c.14.52.14.52.66.82C1012.41,1241,1012.46,1240.53,1011.75,1240.64Zm31.18,10.93c-.43-.08-.84-.22-1.17.31C1042.24,1252,1042.64,1252.12,1042.93,1251.57Zm30.61-69.3c-.7,0-.7,0-.56.6C1073.31,1182.86,1073.48,1182.69,1073.54,1182.27Zm-35.48-.24c.18.2.31.45.62.53a.77.77,0,0,0-.08-.86C1038.33,1181.66,1038.23,1181.85,1038.06,1182Zm6.06,3.9a.47.47,0,0,0,0,.65.44.44,0,0,0,.58-.32A.44.44,0,0,0,1044.12,1185.93Zm7.37,10.85c.25-.1.2-.31.16-.5a.2.2,0,0,0-.26-.16c-.25.09-.2.31-.17.5A.21.21,0,0,0,1051.49,1196.78Zm16.49-6.91a.69.69,0,0,0,.21-1A.71.71,0,0,0,1068,1189.87Zm11-19.43c.22,0,.24-.18.24-.33s0-.33-.24-.33-.23.17-.23.33S1078.81,1170.43,1079,1170.44Zm-22.4-18.41c-.1-.24-.32-.19-.5-.16a.21.21,0,0,0-.16.27c.08.25.31.2.49.16A.22.22,0,0,0,1056.62,1152Zm3.15,1.09c.46-.43.45-.71,0-1A1.12,1.12,0,0,0,1059.77,1153.12Zm7.55,1.71a.4.4,0,0,0-.28-.44.29.29,0,0,0-.36.21c-.09.25.08.36.28.43S1067.26,1155.05,1067.32,1154.83Zm-72.66,70.61c.46-.43.44-.72,0-1A1.09,1.09,0,0,0,994.66,1225.44Zm71.09-93.16c-.22.11-.43.24-.34.53a.31.31,0,0,0,.29.09C1065.92,1132.73,1065.87,1132.51,1065.75,1132.28Zm2.73,9.67c-.21.06-.48-.2-.59.16a.2.2,0,0,0,.07.2C1068.3,1142.48,1068.41,1142.27,1068.48,1142Zm-18.2,51.94c-.07.29-.2.54.13.65a.22.22,0,0,0,.2-.07C1050.77,1194.18,1050.54,1194.07,1050.28,1193.89Zm-5.16-9.7c-.32.14-.46.31-.31.59a.25.25,0,0,0,.2.07C1045.35,1184.72,1045.21,1184.48,1045.12,1184.19Zm-5.25-26a.39.39,0,0,0,.34-.53.38.38,0,0,0-.3-.11A.45.45,0,0,0,1039.87,1158.24Zm-90.64,41.4c-.11-.26-.28-.4-.56-.26a.18.18,0,0,0,0,.3C948.83,1199.82,949.05,1199.91,949.23,1199.64Zm-11.31,2.27a.4.4,0,0,0,.53.33c.07,0,.15-.25.12-.29C938.38,1201.72,938.15,1201.77,937.92,1201.91Zm14.58,23.94c0-.11-.06-.25-.23-.19s-.23.09-.2.25.09.22.24.19A.21.21,0,0,0,952.5,1225.85Zm47.21,15.23c0-.15-.06-.21-.18-.24s-.21.06-.24.19.06.21.18.23S999.68,1241.21,999.71,1241.08Zm68.53-96.55a.32.32,0,0,0-.55,0A.41.41,0,0,0,1068.24,1144.53Zm-6.13,16.73.21-.09a1,1,0,0,0-.19-.28c-.14-.1-.2,0-.22.14S1062,1161.24,1062.11,1161.26Zm5.29,30.58c-.17-.13-.22-.19-.29-.21s-.22.06-.23.19,0,.26.19.19A3.48,3.48,0,0,0,1067.4,1191.84Zm-137.81,3.37a.4.4,0,0,0-.59,0A.44.44,0,0,0,929.59,1195.21Zm.49,1c-.19-.11-.37-.25-.52,0A.38.38,0,0,0,930.08,1196.2Zm42.15,13.67a.45.45,0,0,0,.63,0A.54.54,0,0,0,972.23,1209.87Zm5.37,5.13-.07-.21c-.1,0-.23.07-.29.14s0,.22.11.25S977.56,1215.14,977.6,1215Zm89.28,2.1c.08.09.15.18.23.26s.15.05.18-.06,0-.33-.2-.31C1067,1217,1067,1217.05,1066.88,1217.1Zm-77.15,9.48a.32.32,0,0,0,.25-.23.12.12,0,0,0-.1-.17c-.18,0-.31,0-.29.25C989.6,1226.49,989.68,1226.53,989.73,1226.58Zm-18.28,7c.08-.06.17-.09.18-.14a.21.21,0,0,0-.14-.27c-.12,0-.26,0-.24.14S971.38,1233.46,971.45,1233.55Zm2.51.19c.23.1.41.2.6,0A.5.5,0,0,0,974,1233.74Zm2.4.65-.07-.22c-.1,0-.23.07-.29.15s0,.21.1.24A.21.21,0,0,0,976.36,1234.39Zm36,3.62a.32.32,0,0,0,.25-.23c0-.08,0-.15-.1-.17s-.31,0-.28.25S1012.29,1238,1012.34,1238Zm-34.24.5s-.1-.12-.14-.12a.26.26,0,0,0-.24.33s.14.07.2.06S978.12,1238.67,978.1,1238.51Zm48.68,6.13c-.23-.09-.41-.19-.61.06A.5.5,0,0,0,1026.78,1244.64Zm-18.65,3.16s-.11.09-.11.13a.27.27,0,0,0,.32.25s.08-.14.07-.21S1008.3,1247.78,1008.13,1247.8Zm-4.09.59a.45.45,0,0,0,.63,0A.56.56,0,0,0,1004,1248.39Zm43.93.15a.19.19,0,0,0-.23.2c0,.07.06.21.09.2a.31.31,0,0,0,.31-.29S1048,1248.58,1048,1248.54Zm21.67-117.21a.22.22,0,0,0,.37,0A.23.23,0,0,0,1069.64,1131.33Zm-3.39.47s-.11.08-.12.12a.49.49,0,0,0,.07.19s.11-.07.12-.11A.6.6,0,0,0,1066.25,1131.8Zm0,14.76a.22.22,0,0,0,0-.37A.22.22,0,0,0,1066.22,1146.56Zm-.7,5.93s-.08-.12-.12-.12a.76.76,0,0,0-.2.06s.07.12.11.12S1065.45,1152.51,1065.52,1152.49Zm-10.46,2c0-.09.08-.15.07-.21s-.07-.08-.12-.12a.7.7,0,0,0-.06.19C1055,1154.41,1055,1154.45,1055.06,1154.5Zm11.25,2.09-.12.12a.6.6,0,0,0,.2.07s.08-.08.12-.12Zm-22.1,8.38-.13-.11c0,.06-.07.13-.06.19s.07.08.11.12S1044.18,1165,1044.21,1165Zm-10.69,1.57-.07-.19s-.12.07-.12.11a.76.76,0,0,0,.06.2Zm40.76,1.74-.07-.19s-.12.07-.12.11a.39.39,0,0,0,.06.2Zm-33.84,2.08a.22.22,0,0,0-.37,0A.22.22,0,0,0,1040.44,1170.36Zm21.08,18.35a.53.53,0,0,0-.13.13c-.06.08,0,.17.06.18s.13-.06.14-.11S1061.55,1188.78,1061.52,1188.71ZM934,1199.87a.22.22,0,0,0,0,.37A.22.22,0,0,0,934,1199.87Zm117.32.27s-.11.08-.12.12a.49.49,0,0,0,.07.19s.11-.07.11-.11A.41.41,0,0,0,1051.34,1200.14Zm-130.4,4.68-.07-.2s-.11.07-.11.11a.39.39,0,0,0,.06.2Zm4.59,1.29c0,.05.08.12.12.12s.13,0,.2-.06-.08-.12-.12-.12S925.6,1206.09,925.53,1206.11Zm48.5,6.18a.22.22,0,0,0,0,.37A.22.22,0,0,0,974,1212.29Zm-41,.52s-.12.08-.12.12a.76.76,0,0,0,.06.2s.12-.07.12-.12A.41.41,0,0,0,933.05,1212.81Zm132.68,2.45a1.36,1.36,0,0,0-.12.17c0,.09,0,.17.07.18a.15.15,0,0,0,.13-.1C1065.82,1215.44,1065.77,1215.37,1065.73,1215.26Zm-127.49,3.86a.23.23,0,0,0,0-.37A.22.22,0,0,0,938.24,1219.12Zm19.57,8.14a.22.22,0,0,0,.37,0C958.07,1227.13,957.94,1227.14,957.81,1227.26Zm-8.39,1.8a.22.22,0,0,0,0-.37A.22.22,0,0,0,949.42,1229.06Zm65.67,9.89a.22.22,0,0,0-.37,0A.22.22,0,0,0,1015.09,1239Zm43,5.42s-.11.08-.12.12a.53.53,0,0,0,.07.2s.11-.07.11-.11A.42.42,0,0,0,1058.05,1244.37Zm-36.35,4.24s.08.11.12.12a.53.53,0,0,0,.2-.07s-.07-.11-.11-.11A.42.42,0,0,0,1021.7,1248.61Zm24.42.48c0,.05-.11.08-.12.13a.49.49,0,0,0,.07.19s.11-.07.12-.11A.65.65,0,0,0,1046.12,1249.09Z"/><path class="cls-3" d="M1116.88,776c0,.45,0,.91,0,1.36a3.42,3.42,0,0,1-2.28,3.46,5.83,5.83,0,0,1-2.62.57,7.72,7.72,0,0,0-1.58.17,6,6,0,0,1-2.78-.32,10.3,10.3,0,0,1-5.93-4.68,8.71,8.71,0,0,1-1.36-5.28,3.6,3.6,0,0,1,1.56-2.77,8.08,8.08,0,0,1,4.25-1.42,13.4,13.4,0,0,1,5.81.7,7.36,7.36,0,0,1,4.46,4.45A9.62,9.62,0,0,1,1116.88,776Zm-11.47,1.2c.4.13.7.62,1.21.17-.11-.26-.22-.5-.57-.52Zm6.12,2c-.7.07-.7.07-.51,1C1111,779.75,1111.63,779.71,1111.53,779.21Zm1.91-10c-.11.19-.24.37,0,.52A.39.39,0,0,0,1113.44,769.22ZM1102,772.53a.41.41,0,0,0,0-.59A.43.43,0,0,0,1102,772.53Zm4.58,6.59-.07-.2s-.11.07-.12.11a.76.76,0,0,0,.06.2Z"/><path class="cls-3" d="M1150.87,576.27a.28.28,0,0,1-.26-.26l0,0,.26.26Z"/><path class="cls-4" d="M788.8,1045c-.11.29-.13.76-.33.85a124.07,124.07,0,0,1-25,8.44c-11.29,2.56-22.69,1.53-34.06,2-7.71.33-15-1.47-22.27-3.38-9.59-2.53-19.08-5.5-28.46-8.71-7.87-2.69-15.57-5.88-23.25-9.08-5-2.08-9.87-4.45-14.68-6.91a134.86,134.86,0,0,1-23.95-15.38A99.74,99.74,0,0,1,604.12,1001c-6.35-7.39-11.18-15.65-12.74-25.61a54.33,54.33,0,0,1-.79-8.3q0-43,0-86c0-5.82-1.12-6.83-6.93-8a23.17,23.17,0,0,1-8.62-3.31,63,63,0,0,1-18.91-20.6c-.33-.57-.54-1.21-.88-1.77-2-3.4-1.84-3.17,1.22-6a57.72,57.72,0,0,1,15.62-10.22,52.94,52.94,0,0,1,16-4.42c3.94-.43,7.8-1.06,11.78-.71.56.05,1.41-.72,1.76-1.33a139.5,139.5,0,0,1,10.59-16c1.93-2.44,3.55-5.15,5.63-7.44,5.23-5.78,10.61-11.41,16-17,11.33-11.89,24.59-21.39,38.4-30a213.49,213.49,0,0,1,24-12.43c6.35-2.92,13.24-4.48,20.11-5.88,3.66-.75,7.32-1.55,11-2.33,2.54-.54,5.06-1.24,7.62-1.6,5.51-.78,11-1.26,16.54-2.1a239,239,0,0,1,24-2.17c3.25-.17,6.37.5,9.58.25a46.2,46.2,0,0,1,9.48,0c11.63,1.53,23.25,3.22,34.42,6.94,8.09,2.68,16,6,22.87,11.05,7.92,5.85,14.57,12.8,17.22,22.65.84,3.13,1.18,6.4,1.74,9.6.95,5.45,2,10.88,2.79,16.36a73.08,73.08,0,0,0,2.12,11.53,2.31,2.31,0,0,1-2,3c-2.23.49-4.5.76-6.76,1.1s-4.51.74-6.78,1a44.7,44.7,0,0,0-6.32.78,62.53,62.53,0,0,1-9.24,1.11,235.79,235.79,0,0,0-36.61,6.26c-6.13,1.59-12,4.06-18,6.24s-11.6,4.37-17.39,6.59c-6.09,2.35-12.18,4.7-18.24,7.12-.67.27-1.13,1.06-1.69,1.6.65.66,1.19,1.64,2,1.93,6.89,2.54,13.82,5,20.72,7.42,8.29,3,16.51,6.13,24.88,8.84,5.09,1.65,10.39,2.64,15.62,3.83q6.64,1.51,13.36,2.8c4.32.82,8.67,1.48,13,2.2,4,.68,8,1.56,12.06,2,5.57.54,11.17.83,16.76,1,4.75.17,5.85,1.09,4.5,5.42-.67,2.16-.53,4.22-.81,6.31-.79,5.84-.46,11.8-1.9,17.56a15.9,15.9,0,0,0-.09,2.5c-.32,4.59-.54,9.19-1,13.77-.4,3.75-2.94,5.69-6.45,6.49a9.92,9.92,0,0,1-2,.25c-8.93.35-17.9.24-26.76,1.16-6.61.68-13.27.16-19.76,1.06-5.14.71-10.27.15-15.28.9-6.27,1-12.62.16-18.76,1.1-5.48.83-10.94.12-16.29.9-6.27.92-12.52.82-18.79.92a6.35,6.35,0,0,0-1.89.45c-3.77,1.33-4.11,2.64-1.26,5.53,6,6.05,11.82,12.23,18.06,18s13.17,11,19.51,16.71A208.71,208.71,0,0,0,807,988.53a69.32,69.32,0,0,0,8.39,5.11,3.8,3.8,0,0,1,2.52,4.26c-.26,3.1.6,6.28-.89,9.3-.4.82,0,2-.12,3-.34,3.09-.37,6.29-1.22,9.24a25,25,0,0,1-6,10.59c-5.78,6-12.49,10.7-19.51,15-.37.22-1,0-1.47.06l-1.18-1-.4.55c.42.1.84.22,1.26.31A3.54,3.54,0,0,0,788.8,1045ZM634.72,803.89c-.12-1.8-.91-2.64-2.46-2.84a43.08,43.08,0,0,1-4.81-.8c-1.52-.38-2.19.48-2.59,1.6s1,2.5,2.11,2c1.48-.74,2-.23,2.68.81a11.36,11.36,0,0,0,.94,1.68,1.8,1.8,0,0,0,3.12-.44C634.11,805.16,634.45,804.43,634.72,803.89Zm-28.9,112.39c-.23-.66-.3-1.75-.8-2a2.42,2.42,0,0,0-2.22.35,11.45,11.45,0,0,0-2.24,3,2.9,2.9,0,0,0,1.6,4.15c1.57.4,2.22-.77,2.55-2.19C605,918.52,605.41,917.48,605.82,916.28ZM844.74,757.67a4.06,4.06,0,0,0,0,1.48c.26.65.67,1.62,1.15,1.72,1,.18,2.36.69,2.75-1.09.21-.94.71-1.81,1-2.74.43-1.62-.23-1.52-2.22-2.22-2.36-.82-2.49.22-2.66,1.85A8.32,8.32,0,0,0,844.74,757.67ZM745.43,787c-.28.2-1.44.58-1.56,1.17-.39,2,1.16,4,2.61,3.77s2.18-1.29,2.22-3.17C748.76,786.68,747.27,787.09,745.43,787Zm102.25,98.59c0-2-.21-3.43-1.9-3.4a2.7,2.7,0,0,0-1.88,1.7c-.31,1.11,1.46,3.25,2.33,3C846.91,886.71,847.41,885.87,847.68,885.62Zm-73.95,114.94c.21.26.63,1.24,1.07,1.25,1.22,0,2.92-2.12,2.82-3.44a1.74,1.74,0,0,0-1.08-1.23C774.68,996.8,773.8,997.79,773.73,1000.56Zm53-251.59c-1.13-.82-2.07-1.59-3.1-2.21a4.51,4.51,0,0,0-1.6-.28c-.06.63-.35,1.7-.13,1.82a21.86,21.86,0,0,0,4,1.58C826,749.94,826.42,749.3,826.73,749ZM621.31,927.74c.29-3,.32-3.08-1.11-3.82-.63-.32-1.85-.71-2-.5-1,1.32.51,1.29,1.12,1.85A18.45,18.45,0,0,1,621.31,927.74Zm78.22-124.15c-.13-.3-.18-.46-.26-.6-.74-1.3-3.29-1.25-4.15.1a.9.9,0,0,0,0,.83c.46.4,1.09,1,1.52.94A15.39,15.39,0,0,0,699.53,803.59Zm-25.38,85.34-1.55-1.79a15.74,15.74,0,0,0-1.48,2.61c-.07.19,1.17,1.18,1.3,1.09A11.11,11.11,0,0,0,674.15,888.93Zm-18,52.27c-1-.79-1.76-1.42-2.58-2a2.36,2.36,0,0,0-.75,1c-.19,1.22.1,2.38,1.51,2.56C654.74,942.79,655.26,942,656.14,941.2Zm68.91-74.62c-1-.64-1.64-1.4-2.24-1.37s-1.26.82-1.89,1.27c.6.49,1.16,1.29,1.8,1.35S724,867.18,725.05,866.58Zm81.73-50.84-.54-.57a8.28,8.28,0,0,0-1.69,1.65,5.42,5.42,0,0,0-.32,2c.67-.28,1.54-.4,1.95-.9A5.74,5.74,0,0,0,806.78,815.74ZM644.92,898.31c.66-1,1.18-1.67,1.62-2.44a3.57,3.57,0,0,0-.93-.69,13.34,13.34,0,0,0-1.72,2C643.84,897.21,644.4,897.72,644.92,898.31Zm77.55,154.53,1.08,2c.37-.39,1.12-.89,1.05-1.16a11.87,11.87,0,0,0-1.22-2.34Zm53.7-309.11c0-1.26,2.28-1.81,1-3.46a.47.47,0,0,0-.41-.11C774.84,741,776,742.45,776.17,743.73ZM723,931.43c1.31.06,2,2.41,3.66,1.05.07-.06,0-.32,0-.44C725.66,930.26,724.26,931.18,723,931.43Zm-16.08-173-.78-1.1c-.43.46-1.06.86-1.25,1.41a4,4,0,0,0,.21,1.84s.66.06.75-.08C706.21,759.87,706.52,759.17,706.88,758.45Zm-13.48,71,1.17-1.5c-.48-.29-1-.81-1.44-.79s-.84.63-1.26,1Zm158.33,82.14-3.09,3.32C851.27,914.63,851.27,914.63,851.73,911.57Zm-221.7-29a10.27,10.27,0,0,0-.93,1.28c.64.69,1.35,1.31,2,2,.18-.38.61-.89.49-1.12A15,15,0,0,0,630,882.53Zm3.82,111.87,1.71-1.17c-.38-.38-.73-1-1.15-1.08s-1,.42-1.53.67Zm34.87-119.52c.55-1.36,1-1.89.9-2.35s-.58-.9-.9-1.35c-.33.45-.85.87-.91,1.35S668.16,873.52,668.72,874.88Zm59,48.87c-.43.61-.91,1.16-.85,1.23a2.9,2.9,0,0,0,1.28,1c.37.1.86-.23,1.29-.37Zm17.31,129.18a7.71,7.71,0,0,0-1.43-.73,3.43,3.43,0,0,0-.84,1.46c-.06.31.34.72.54,1.08ZM634.61,852.73l-1.68,1.83c.44.14.94.48,1.31.38a3,3,0,0,0,1.28-1A8.37,8.37,0,0,0,634.61,852.73Zm137.89,28c-1.23-.83-1.71-1.35-2.27-1.47-.4-.07-.9.42-1.36.66.26.33.47.87.78.94A14.63,14.63,0,0,0,772.5,880.76ZM648.27,811c.36,0,.6.07.68,0s.4-.48.34-.65a5.26,5.26,0,0,0-.82-1.74c-.23-.27-.83-.21-1.25-.3a2.37,2.37,0,0,0,.07.76C647.6,809.72,648,810.39,648.27,811Zm-17.19.95-1.45-1.78c-.27.33-.82.74-.75,1a4.35,4.35,0,0,0,1,1.51A6.74,6.74,0,0,0,631.08,811.92Zm133,219.42c-.65-.41-1.11-.93-1.44-.86s-.75.68-.83,1.11.29.78.46,1.17Zm60.09-225.11.05.78,3.1-.27,0-.51Zm-52.58,15.61c-.34.59-.75,1-.68,1.27a1.15,1.15,0,0,0,.9.71,1.16,1.16,0,0,0,.7-.89C772.5,822.63,772,822.34,771.58,821.84Zm-75.65,39c-.6-.33-1-.73-1.29-.67a1.15,1.15,0,0,0-.7.89,1.12,1.12,0,0,0,.88.7C695.13,861.8,695.42,861.33,695.93,860.89Zm76.92-91.07c-.47.51-1,.8-1,1.09a1.17,1.17,0,0,0,.72.9c.27,0,.81-.4.88-.7S773.18,770.42,772.85,769.82Zm79,4c-.47.51-1,.8-1,1.09a1.17,1.17,0,0,0,.72.9c.27,0,.81-.4.88-.7S852.18,774.42,851.85,773.82ZM792,866.8c-.61-.3-1-.68-1.32-.6s-.53.59-.79.92c.33.24.68.71,1,.68S791.45,867.29,792,866.8Zm43.2-64.57,0,.73,3.21-.19,0-.54Zm-40.49-15.06c-.32.75-.64,1.42-.89,2.12,0,.05.44.27.67.41.39-.65.78-1.31,1.14-2Zm-32.76,178c-.51-.47-.8-.95-1.09-.95a1.18,1.18,0,0,0-.9.71,1.17,1.17,0,0,0,.7.89C760.93,965.87,761.32,965.48,761.92,965.16ZM671,789.31v.42h3.41v-.42Zm6.78,35-.71-.84a4.55,4.55,0,0,0-.29,1.32c0,.3.36.58.56.87Zm75,1.66-.71-.63-1,1.35c.29.08.66.31.85.21A4.22,4.22,0,0,0,752.77,825.93Zm-40.12,67.91c0-.84,0-1.44,0-2,0-.14-.36-.25-.55-.38-.09.6-.22,1.19-.25,1.79C711.81,893.35,712.17,893.49,712.65,893.84ZM767.51,913l-1.35.44c.28.2.54.54.83.56a4.52,4.52,0,0,0,1.32-.28ZM696.68,783.28l-.39-1a5.15,5.15,0,0,0-1.11.82c-.07.08.31.55.49.85ZM742.36,787l-.23-.83c-.42.13-1,.13-1.19.41s.18.77.3,1.17ZM666.83,927.54a6.29,6.29,0,0,0-1.59-.46,5,5,0,0,0-1.29.41,4.26,4.26,0,0,0,1.25.47A6.57,6.57,0,0,0,666.83,927.54ZM780.56,823.46a6.17,6.17,0,0,0-1-1c-.07-.05-.5.4-.76.61a4.65,4.65,0,0,0,.92.81C779.9,823.94,780.23,823.64,780.56,823.46ZM680.78,815a3.61,3.61,0,0,0,.78-.93c.09-.21-.16-.56-.26-.85L680,814.44Zm32.65,125.81,1-1-.84-.65a5.31,5.31,0,0,0-.68,1C712.82,940.3,713.18,940.57,713.43,940.85Zm-16.25,12.33c-.15.37-.42.76-.33.92a4,4,0,0,0,.94.82c.16-.3.54-.76.46-.89A4.61,4.61,0,0,0,697.18,953.18Zm-102.39,8.63-.44-1.35c-.2.28-.54.55-.56.84a4.73,4.73,0,0,0,.28,1.31ZM677.22,964l-1.28.57a4.06,4.06,0,0,0,1.28.44,4,4,0,0,0,1.27-.44Zm59.52,3.16a4,4,0,0,0-.82-.94c-.18-.11-.57.13-.86.21l1,1.35Zm-83.06,2.17-.39-1a5.15,5.15,0,0,0-1.11.82c-.07.08.31.55.49.85ZM766.47,988.1l.84-.71a4.55,4.55,0,0,0-1.32-.29c-.3,0-.58.36-.87.56Zm-96,1.91c-.18.34-.46.69-.39.78a7.44,7.44,0,0,0,1,1c.17-.35.56-.82.45-1S670.84,990.24,670.47,990Zm39.37,37.51a7.14,7.14,0,0,0-1.62-.44,5,5,0,0,0-1.28.44,4.23,4.23,0,0,0,1.28.44A6.21,6.21,0,0,0,709.84,1027.52Zm35.66-135c-.25-.14-.5-.39-.76-.4s-.54.23-.81.36c.26.14.51.39.77.4S745.24,892.67,745.5,892.54Zm-25.11-23.11a2.22,2.22,0,0,0-.84-.29c-.18,0-.34.32-.51.5a2.35,2.35,0,0,0,.82.25C720,869.88,720.21,869.6,720.39,869.43Zm-7,37.22c-.17-.19-.33-.49-.51-.51a2.24,2.24,0,0,0-.83.27c.16.17.3.47.47.49A2.5,2.5,0,0,0,713.41,906.65Zm-65.78,1.4-.39-.81c-.14.26-.39.51-.4.77s.23.53.36.8C647.34,908.56,647.48,908.3,647.63,908.05ZM576.5,840.54c-.25-.14-.5-.39-.76-.4s-.54.23-.81.36c.26.14.51.39.77.4S576.24,840.67,576.5,840.54Zm115.13-5.34-.3-.83c-.17.16-.47.31-.49.48a2.6,2.6,0,0,0,.24.85Zm123.68,81.5a2.26,2.26,0,0,0,.29-.85c0-.18-.32-.34-.49-.5a2.18,2.18,0,0,0-.26.82C814.86,916.35,815.14,916.51,815.31,916.7Zm27,2a2.26,2.26,0,0,0,.29-.85c0-.18-.32-.34-.49-.5a2.18,2.18,0,0,0-.26.82C841.86,918.35,842.14,918.51,842.31,918.7Zm-121-.37c-.18.17-.49.33-.51.51a2.24,2.24,0,0,0,.27.83c.17-.15.48-.3.49-.47A2.5,2.5,0,0,0,721.34,918.33ZM826.5,788.54c-.25-.14-.5-.39-.76-.4s-.54.23-.81.36c.26.14.51.39.77.4S826.24,788.67,826.5,788.54ZM756.31,747.7a2.26,2.26,0,0,0,.29-.85c0-.18-.32-.34-.49-.5a2.18,2.18,0,0,0-.26.82C755.86,747.35,756.14,747.51,756.31,747.7Zm18.32,2.35-.39-.81c-.14.26-.39.51-.4.77s.23.53.36.8C774.34,750.56,774.48,750.3,774.63,750.05Zm-.4,2.19c-.14.25-.39.5-.39.76s.22.54.35.81c.15-.26.4-.51.4-.77S774.36,752.5,774.23,752.24Zm-95.63,7.68-.49-.54a2.45,2.45,0,0,0-.28.81c0,.18.32.34.5.51Zm32,181.22-.54.49a2.45,2.45,0,0,0,.81.28c.18,0,.34-.32.5-.5ZM824.39,795.43a2.22,2.22,0,0,0-.84-.29c-.18,0-.34.32-.51.5a2.35,2.35,0,0,0,.82.25C824,795.88,824.21,795.6,824.39,795.43ZM653.63,857.05l-.39-.81c-.14.26-.39.51-.4.77s.23.53.36.8C653.34,857.56,653.48,857.3,653.63,857.05Zm32.78-2.4c-.17-.19-.33-.49-.51-.51a2.24,2.24,0,0,0-.83.27c.16.17.3.47.47.49A2.5,2.5,0,0,0,686.41,854.65Zm-23.78,11.4-.39-.81c-.14.26-.39.51-.4.77s.23.53.36.8C662.34,866.56,662.48,866.3,662.63,866.05Zm-37.91-16.82-.37-.85c-.18.16-.5.32-.5.48a2.47,2.47,0,0,0,.28.86ZM795.5,884.54c-.25-.14-.5-.39-.76-.4s-.54.23-.81.36c.26.14.51.39.77.4S795.24,884.67,795.5,884.54Zm-78.88,85.6c-.2.17-.37.33-.54.49a2.37,2.37,0,0,0,.81.28c.18,0,.34-.32.5-.5Zm111.79-85.49c-.17-.19-.33-.49-.51-.51a2.24,2.24,0,0,0-.83.27c.16.17.3.47.47.49A2.5,2.5,0,0,0,828.41,884.65ZM731,842.4c.18.18.34.49.52.51a2.3,2.3,0,0,0,.83-.27c-.16-.17-.31-.48-.48-.49A2.63,2.63,0,0,0,731,842.4Zm-47.4-61.26-.54.49a2.37,2.37,0,0,0,.81.28c.18,0,.34-.32.5-.5Zm60,17.91-.39-.81c-.14.26-.39.51-.4.77s.23.53.36.8C743.34,799.56,743.48,799.3,743.63,799.05ZM642.39,1004.43a2.22,2.22,0,0,0-.84-.29c-.18,0-.34.32-.51.5a2.35,2.35,0,0,0,.82.25C642,1004.88,642.21,1004.6,642.39,1004.43Zm46.84,5.81c-.14.25-.39.5-.39.76s.22.54.35.81c.15-.26.4-.51.4-.77S689.36,1010.5,689.23,1010.24Zm27.27,3.3c-.25-.14-.5-.39-.76-.4s-.54.23-.81.36c.26.14.51.39.77.4S716.24,1013.67,716.5,1013.54ZM584.41,832.65c-.17-.19-.33-.49-.51-.51a2.24,2.24,0,0,0-.83.27c.16.17.3.47.47.49A2.5,2.5,0,0,0,584.41,832.65Zm122.28,60.28.81-.38c-.26-.15-.51-.4-.77-.4s-.53.23-.8.36Zm91.65-16.6c-.18.17-.49.33-.51.51a2.24,2.24,0,0,0,.27.83c.17-.15.48-.3.49-.47A2.5,2.5,0,0,0,798.34,876.33ZM703.63,1040.2l-.3-.83c-.17.16-.47.31-.49.48a2.6,2.6,0,0,0,.24.85Zm60.6-243c-.14.25-.39.5-.39.76s.22.54.35.81c.15-.26.4-.51.4-.77S764.36,797.5,764.23,797.24Zm37.39,222.9c-.2.17-.37.33-.54.49a2.45,2.45,0,0,0,.81.28c.18,0,.34-.32.5-.5Z"/><ellipse class="cls-5" cx="586.01" cy="843.28" rx="7.28" ry="5.46"/><path class="cls-5" d="M739.89,829a3,3,0,0,0,4.72-1.46l5.89-15.45c.78-2.06-.3-3.21-2.41-2.57l-17.45,5.31a2.81,2.81,0,0,1-3.83-2.84V790.52a2.78,2.78,0,0,0-3.82-2.81l-24,7.45c-2.1.65-2.89-.36-1.76-2.25l5.71-9.51c1.13-1.89.31-3-1.82-2.42l-17.36,4.53c-2.13.56-3.15-.64-2.28-2.66l7.73-17.77c.88-2,0-2.86-2-1.88L666,773.82c-2,1-2.09,2.81-.28,4.06Z"/><path class="cls-5" d="M777.1,811.41a4.57,4.57,0,0,0,5.93-.52l10.91-11.63c1.5-1.6.93-2.92-1.27-2.92H773.38c-2.2,0-2.87-1.4-1.5-3.12l8.1-10.13c1.38-1.71.7-3.12-1.5-3.12H755.92c-2.2,0-3-1.47-1.69-3.27l8.48-12c1.27-1.79.51-3.26-1.69-3.26H734.09c-2.2,0-3-1.5-1.78-3.33l8.66-13c1.22-1.83.57-2.61-1.44-1.72l-29.8,13.15c-2,.88-2.21,2.69-.45,4Z"/><path class="cls-5" d="M817.45,803.88a4.43,4.43,0,0,0,5.68,1.52l13.66-7.19c2-1,1.86-2.5-.2-3.27l-18.71-7c-2.06-.78-2.36-2.56-.67-4l6.95-5.79c1.69-1.41,1.42-3.26-.61-4.12l-13.37-5.62a3.89,3.89,0,0,1-2-5.2l2.15-4.72a3.12,3.12,0,0,0-2.25-4.51l-11.84-2.63a3.74,3.74,0,0,1-2.81-4.72l2.17-7.59c.61-2.11-.6-3.24-2.67-2.51l-11,3.89a3,3,0,0,0-1.63,4.71Z"/><path class="cls-5" d="M721.9,935.06a3.81,3.81,0,0,1,4.84,2.69l3.42,13c.56,2.13-.44,2.81-2.22,1.52l-13.16-9.5c-1.79-1.29-3.25-.54-3.25,1.66v17.1c0,2.2-1.31,2.77-2.92,1.27L697,951.89c-1.61-1.5-3.08-.94-3.27,1.25l-1.49,17.14c-.19,2.19-1.83,3-3.64,1.72l-10.87-7.48c-1.82-1.24-3.3-.46-3.3,1.74v17.1c0,2.2-1.42,2.9-3.16,1.55l-23.15-18c-1.74-1.36-3.16-.66-3.16,1.54v11.65c0,2.2-1.5,3-3.33,1.78l-13-8.66c-1.83-1.22-3.23-.42-3.11,1.77,0,0,.87,15.66-.22,14.56s-16.73-15.81-16.73-15.81c-1.6-1.51-1.2-3.27.91-3.92Z"/><path class="cls-5" d="M742.76,968.14a5,5,0,0,1,5.87,1.84l7.67,11.84c1.19,1.85.44,2.87-1.68,2.28L735,978.62a2.87,2.87,0,0,0-3.85,2.92v13.83c0,2.2-1.51,3-3.36,1.83L716,989.53c-1.84-1.19-3.45-.37-3.56,1.83l-.69,13.84c-.11,2.19-1.64,2.91-3.4,1.59L692.9,995.22c-1.76-1.32-3-.61-2.7,1.57l2.28,18.26c.27,2.18-1,3-2.87,1.81l-20.55-13.15c-1.86-1.19-3.15-.37-2.88,1.81l1.2,9.53c.27,2.18-1,3-2.92,1.88l-12.82-7.84c-1.88-1.14-1.75-2.77.28-3.6Z"/><path class="cls-5" d="M776.81,997A5.11,5.11,0,0,1,782.9,998l7.89,9.21c1.44,1.67.81,3-1.39,3H778.84a3.05,3.05,0,0,0-3.1,3.9l1.48,6.4c.49,2.14-.78,3.24-2.83,2.44l-12.19-4.74a2.56,2.56,0,0,0-3.73,2.55v11.65c0,2.2-1.57,3.12-3.49,2l-10.49-5.9a2.52,2.52,0,0,0-4,2l-1.13,8.44a2.62,2.62,0,0,1-4.07,2.11l-15.84-8.29c-2-1-2-2.74-.05-3.81Z"/></svg>